<svg xmlns="http://www.w3.org/2000/svg" xmlns:xlink="http://www.w3.org/1999/xlink" width="940" zoomAndPan="magnify" viewBox="0 0 705 591.000005" height="788" preserveAspectRatio="xMidYMid meet" version="1.0"><defs><filter x="0%" y="0%" width="100%" height="100%" id="336b1ad6d9"><feColorMatrix values="0 0 0 0 1 0 0 0 0 1 0 0 0 0 1 0 0 0 1 0" color-interpolation-filters="sRGB"/></filter><mask id="3d1aa38ee8"><g filter="url(#336b1ad6d9)"><rect x="-70.5" width="846" fill="#000000" y="-59.100001" height="709.200006" fill-opacity="0.11"/></g></mask><clipPath id="30f299520b"><path d="M 0.09375 0.636719 L 180 0.636719 L 180 183.207031 L 0.09375 183.207031 Z M 0.09375 0.636719 " clip-rule="nonzero"/></clipPath><clipPath id="2819a70700"><rect x="0" width="181" y="0" height="184"/></clipPath><mask id="9b1c040fef"><g filter="url(#336b1ad6d9)"><rect x="-70.5" width="846" fill="#000000" y="-59.100001" height="709.200006" fill-opacity="0.11"/></g></mask><clipPath id="c4eba1b9f0"><path d="M 1 1 L 334 1 L 334 338.566406 L 1 338.566406 Z M 1 1 " clip-rule="nonzero"/></clipPath><clipPath id="43a31c2b92"><rect x="0" width="335" y="0" height="339"/></clipPath><clipPath id="a156d5d9fc"><path d="M 182.070312 258.242188 L 489.800781 258.242188 L 489.800781 565.972656 L 182.070312 565.972656 Z M 182.070312 258.242188 " clip-rule="nonzero"/></clipPath></defs><g mask="url(#3d1aa38ee8)"><g transform="matrix(1, 0, 0, 1, 156, 25)"><g clip-path="url(#2819a70700)"><g clip-path="url(#30f299520b)"><path fill="#464f5b" d="M 136.308594 19.851562 C 153.078125 32.316406 166.789062 48.859375 174.15625 68.125 C 181.519531 87.5 182.652344 109.710938 172.683594 124.78125 C 162.824219 139.851562 142.085938 147.671875 124.75 156.847656 C 107.414062 165.914062 93.476562 176.113281 76.253906 180.644531 C 59.140625 185.0625 38.746094 183.703125 26.167969 173.050781 C 13.589844 162.515625 8.71875 142.570312 4.980469 123.988281 C 1.238281 105.515625 -1.480469 88.179688 2.824219 72.65625 C 7.132812 57.132812 18.460938 43.308594 32.402344 29.9375 C 46.339844 16.566406 62.882812 3.535156 81.238281 1.269531 C 99.480469 -0.996094 119.425781 7.386719 136.308594 19.851562 Z M 136.308594 19.851562 " fill-opacity="1" fill-rule="nonzero"/></g></g></g></g><g mask="url(#9b1c040fef)"><g transform="matrix(1, 0, 0, 1, 212, 224)"><g clip-path="url(#43a31c2b92)"><g clip-path="url(#c4eba1b9f0)"><path fill="#464f5b" d="M 252.460938 36.53125 C 283.464844 59.574219 308.816406 90.164062 322.433594 125.777344 C 336.050781 161.605469 338.148438 202.667969 319.710938 230.53125 C 301.484375 258.394531 263.144531 272.851562 231.089844 289.820312 C 199.035156 306.582031 173.265625 325.4375 141.421875 333.816406 C 109.785156 341.988281 72.074219 339.476562 48.820312 319.78125 C 25.566406 300.296875 16.558594 263.425781 9.644531 229.066406 C 2.730469 194.917969 -2.296875 162.863281 5.664062 134.160156 C 13.625 105.457031 34.574219 79.898438 60.34375 55.175781 C 86.113281 30.453125 116.699219 6.359375 150.640625 2.171875 C 184.371094 -2.019531 221.242188 13.484375 252.460938 36.53125 Z M 252.460938 36.53125 " fill-opacity="1" fill-rule="nonzero"/></g></g></g></g><g clip-path="url(#a156d5d9fc)"><path fill="#1e81ce" d="M 469.304688 483.929688 L 356.464844 483.929688 C 350.8125 483.929688 346.203125 479.320312 346.203125 473.667969 L 346.203125 371.085938 L 479.5625 371.085938 L 479.5625 473.667969 C 479.5625 479.320312 474.957031 483.929688 469.304688 483.929688 Z M 418.011719 514.703125 L 253.878906 514.703125 L 253.878906 483.929688 C 255.941406 483.929688 258.007812 483.847656 260.050781 483.667969 C 263.394531 483.347656 266.261719 481.203125 267.5625 477.996094 L 270.910156 469.644531 C 274.9375 468.441406 278.804688 466.835938 282.488281 464.835938 L 290.804688 468.378906 C 293.929688 469.722656 297.515625 469.222656 300.101562 467.058594 C 301.683594 465.753906 303.1875 464.351562 304.648438 462.890625 C 306.113281 461.429688 307.515625 459.925781 308.835938 458.34375 C 310.980469 455.757812 311.480469 452.191406 310.140625 449.046875 L 306.59375 440.730469 C 308.597656 437.042969 310.199219 433.175781 311.402344 429.148438 L 319.757812 425.804688 C 319.777344 425.785156 319.777344 425.785156 319.777344 425.785156 C 322.960938 424.5 325.105469 421.636719 325.425781 418.289062 C 325.609375 416.246094 325.6875 414.183594 325.6875 412.121094 C 325.6875 410.054688 325.609375 407.992188 325.425781 405.949219 C 325.105469 402.601562 322.960938 399.738281 319.757812 398.433594 L 311.402344 395.089844 C 310.199219 391.0625 308.597656 387.195312 306.59375 383.507812 L 310.140625 375.191406 C 311.480469 372.046875 310.980469 368.480469 308.816406 365.894531 C 307.515625 364.3125 306.113281 362.8125 304.648438 361.347656 C 303.1875 359.886719 301.683594 358.484375 300.101562 357.160156 C 297.515625 355.015625 293.929688 354.515625 290.804688 355.859375 L 282.488281 359.40625 C 278.804688 357.402344 274.9375 355.796875 270.910156 354.597656 L 267.542969 346.222656 C 266.261719 343.035156 263.394531 340.890625 260.050781 340.570312 C 258.007812 340.390625 255.941406 340.289062 253.878906 340.289062 L 253.878906 309.535156 L 418.011719 309.535156 L 418.011719 319.792969 L 356.464844 319.792969 C 345.140625 319.792969 335.945312 328.988281 335.945312 340.308594 L 335.945312 473.667969 C 335.945312 484.988281 345.140625 494.1875 356.464844 494.1875 L 418.011719 494.1875 Z M 407.753906 555.738281 L 264.136719 555.738281 C 258.488281 555.738281 253.878906 551.128906 253.878906 545.480469 L 253.878906 524.960938 L 418.011719 524.960938 L 418.011719 545.480469 C 418.011719 551.128906 413.40625 555.738281 407.753906 555.738281 Z M 228.253906 454.714844 C 226.832031 453.855469 225.085938 453.714844 223.5625 454.375 L 213.605469 458.664062 C 212.484375 457.703125 211.402344 456.699219 210.359375 455.636719 C 209.320312 454.59375 208.296875 453.511719 207.335938 452.390625 L 211.621094 442.414062 C 212.265625 440.890625 212.144531 439.167969 211.28125 437.746094 C 208.71875 433.496094 206.8125 428.910156 205.613281 424.101562 C 205.210938 422.496094 204.070312 421.195312 202.546875 420.574219 L 192.488281 416.546875 C 192.386719 415.085938 192.328125 413.601562 192.328125 412.121094 C 192.328125 410.636719 192.386719 409.152344 192.488281 407.691406 L 202.546875 403.664062 C 204.070312 403.042969 205.210938 401.742188 205.613281 400.136719 C 206.8125 395.328125 208.71875 390.742188 211.28125 386.492188 C 212.144531 385.070312 212.265625 383.328125 211.621094 381.804688 L 207.335938 371.847656 C 208.296875 370.726562 209.320312 369.644531 210.359375 368.601562 C 211.402344 367.539062 212.484375 366.539062 213.605469 365.574219 L 223.585938 369.863281 C 225.085938 370.503906 226.832031 370.382812 228.253906 369.523438 C 232.5 366.957031 237.089844 365.054688 241.898438 363.851562 C 243.5 363.453125 244.800781 362.308594 245.421875 360.789062 L 249.449219 350.730469 C 252.375 350.507812 255.359375 350.507812 258.304688 350.730469 L 262.332031 360.789062 C 262.953125 362.308594 264.257812 363.453125 265.859375 363.851562 C 270.667969 365.054688 275.257812 366.957031 279.503906 369.523438 C 280.925781 370.382812 282.648438 370.503906 284.171875 369.863281 L 294.152344 365.574219 C 295.273438 366.539062 296.355469 367.539062 297.398438 368.601562 C 298.457031 369.644531 299.460938 370.726562 300.421875 371.847656 L 296.132812 381.804688 C 295.492188 383.328125 295.613281 385.070312 296.476562 386.492188 C 299.039062 390.742188 300.941406 395.328125 302.144531 400.136719 C 302.546875 401.742188 303.6875 403.042969 305.210938 403.664062 L 315.269531 407.691406 C 315.367188 409.152344 315.429688 410.636719 315.429688 412.121094 C 315.429688 413.601562 315.367188 415.085938 315.269531 416.546875 L 305.210938 420.574219 C 303.6875 421.195312 302.546875 422.496094 302.144531 424.101562 C 300.941406 428.910156 299.039062 433.496094 296.476562 437.746094 C 295.613281 439.167969 295.492188 440.890625 296.132812 442.414062 L 300.421875 452.390625 C 299.460938 453.511719 298.457031 454.59375 297.398438 455.636719 C 296.355469 456.699219 295.273438 457.703125 294.152344 458.664062 L 284.191406 454.375 C 282.648438 453.714844 280.925781 453.855469 279.503906 454.714844 C 275.257812 457.28125 270.667969 459.183594 265.859375 460.386719 C 264.257812 460.785156 262.953125 461.929688 262.332031 463.453125 L 258.304688 473.507812 C 255.382812 473.730469 252.394531 473.730469 249.449219 473.507812 L 245.421875 463.453125 C 244.800781 461.929688 243.5 460.785156 241.898438 460.386719 C 237.089844 459.183594 232.5 457.28125 228.253906 454.714844 Z M 264.136719 268.5 L 407.753906 268.5 C 413.40625 268.5 418.011719 273.109375 418.011719 278.761719 L 418.011719 299.277344 L 253.878906 299.277344 L 253.878906 278.761719 C 253.878906 273.109375 258.488281 268.5 264.136719 268.5 Z M 479.5625 340.308594 L 479.5625 360.828125 L 346.203125 360.828125 L 346.203125 340.308594 C 346.203125 334.660156 350.8125 330.050781 356.464844 330.050781 L 469.304688 330.050781 C 474.957031 330.050781 479.5625 334.660156 479.5625 340.308594 Z M 469.304688 319.792969 L 428.273438 319.792969 L 428.273438 278.761719 C 428.273438 267.441406 419.074219 258.242188 407.753906 258.242188 L 264.136719 258.242188 C 252.816406 258.242188 243.621094 267.441406 243.621094 278.761719 L 243.621094 342.074219 C 242.136719 343.074219 240.914062 344.476562 240.195312 346.242188 L 236.847656 354.597656 C 232.820312 355.796875 228.933594 357.402344 225.265625 359.40625 L 216.953125 355.859375 C 213.808594 354.515625 210.242188 355.015625 207.65625 357.179688 C 206.074219 358.484375 204.570312 359.886719 203.109375 361.347656 C 201.644531 362.8125 200.242188 364.3125 198.941406 365.894531 C 196.777344 368.480469 196.273438 372.046875 197.617188 375.191406 L 201.183594 383.507812 C 199.160156 387.195312 197.558594 391.0625 196.355469 395.089844 L 187.980469 398.453125 C 184.792969 399.738281 182.652344 402.601562 182.351562 405.949219 C 182.148438 407.992188 182.070312 410.054688 182.070312 412.121094 C 182.070312 414.183594 182.148438 416.246094 182.351562 418.289062 C 182.652344 421.636719 184.792969 424.5 188 425.804688 L 196.355469 429.148438 C 197.558594 433.175781 199.160156 437.042969 201.183594 440.730469 L 197.617188 449.046875 C 196.273438 452.191406 196.777344 455.757812 198.941406 458.34375 C 200.242188 459.925781 201.644531 461.429688 203.109375 462.890625 C 204.570312 464.351562 206.074219 465.753906 207.65625 467.078125 C 210.242188 469.222656 213.808594 469.722656 216.953125 468.378906 L 225.265625 464.835938 C 228.933594 466.835938 232.820312 468.441406 236.847656 469.644531 L 240.214844 478.019531 C 240.914062 479.78125 242.136719 481.164062 243.621094 482.164062 L 243.621094 545.480469 C 243.621094 556.800781 252.816406 565.996094 264.136719 565.996094 L 407.753906 565.996094 C 419.074219 565.996094 428.273438 556.800781 428.273438 545.480469 L 428.273438 494.1875 L 469.304688 494.1875 C 480.625 494.1875 489.824219 484.988281 489.824219 473.667969 L 489.824219 340.308594 C 489.824219 328.988281 480.625 319.792969 469.304688 319.792969 " fill-opacity="1" fill-rule="nonzero"/></g><path fill="#1e81ce" d="M 223.101562 412.121094 C 223.101562 398.753906 231.699219 387.375 243.621094 383.128906 L 243.621094 394.449219 C 237.507812 398.015625 233.363281 404.566406 233.363281 412.121094 C 233.363281 419.671875 237.507812 426.226562 243.621094 429.792969 L 243.621094 441.113281 C 231.699219 436.863281 223.101562 425.484375 223.101562 412.121094 Z M 253.878906 401.859375 C 259.527344 401.859375 264.136719 406.46875 264.136719 412.121094 C 264.136719 417.769531 259.527344 422.378906 253.878906 422.378906 C 248.230469 422.378906 243.621094 417.769531 243.621094 412.121094 C 243.621094 406.46875 248.230469 401.859375 253.878906 401.859375 Z M 284.652344 412.121094 C 284.652344 429.089844 270.847656 442.894531 253.878906 442.894531 L 253.878906 432.636719 C 265.199219 432.636719 274.394531 423.441406 274.394531 412.121094 C 274.394531 400.800781 265.199219 391.601562 253.878906 391.601562 L 253.878906 381.34375 C 270.847656 381.34375 284.652344 395.148438 284.652344 412.121094 Z M 294.914062 412.121094 C 294.914062 389.5 276.5 371.085938 253.878906 371.085938 C 231.257812 371.085938 212.84375 389.5 212.84375 412.121094 C 212.84375 434.738281 231.257812 453.152344 253.878906 453.152344 C 276.5 453.152344 294.914062 434.738281 294.914062 412.121094 " fill-opacity="1" fill-rule="nonzero"/><path fill="#1e81ce" d="M 366.722656 412.121094 L 366.722656 391.601562 L 459.046875 391.601562 L 459.066406 412.121094 Z M 459.046875 381.34375 L 366.722656 381.34375 C 361.070312 381.34375 356.464844 385.953125 356.464844 391.601562 L 356.464844 412.121094 C 356.464844 417.769531 361.070312 422.378906 366.722656 422.378906 L 459.046875 422.378906 C 464.699219 422.378906 469.304688 417.769531 469.304688 412.121094 L 469.304688 391.601562 C 469.304688 385.953125 464.699219 381.34375 459.046875 381.34375 " fill-opacity="1" fill-rule="nonzero"/><path fill="#1e81ce" d="M 315.429688 289.019531 L 320.558594 289.019531 C 323.382812 289.019531 325.6875 286.714844 325.6875 283.890625 C 325.6875 281.0625 323.382812 278.761719 320.558594 278.761719 L 315.429688 278.761719 C 312.605469 278.761719 310.300781 281.0625 310.300781 283.890625 C 310.300781 286.714844 312.605469 289.019531 315.429688 289.019531 " fill-opacity="1" fill-rule="nonzero"/><path fill="#1e81ce" d="M 341.074219 289.019531 L 356.464844 289.019531 C 359.289062 289.019531 361.59375 286.714844 361.59375 283.890625 C 361.59375 281.0625 359.289062 278.761719 356.464844 278.761719 L 341.074219 278.761719 C 338.25 278.761719 335.945312 281.0625 335.945312 283.890625 C 335.945312 286.714844 338.25 289.019531 341.074219 289.019531 " fill-opacity="1" fill-rule="nonzero"/><path fill="#1e81ce" d="M 346.203125 535.21875 L 325.6875 535.21875 C 322.863281 535.21875 320.558594 537.523438 320.558594 540.347656 C 320.558594 543.175781 322.863281 545.480469 325.6875 545.480469 L 346.203125 545.480469 C 349.03125 545.480469 351.332031 543.175781 351.332031 540.347656 C 351.332031 537.523438 349.03125 535.21875 346.203125 535.21875 " fill-opacity="1" fill-rule="nonzero"/><path fill="#1e81ce" d="M 366.722656 340.308594 L 361.59375 340.308594 C 358.765625 340.308594 356.464844 342.613281 356.464844 345.441406 C 356.464844 348.265625 358.765625 350.570312 361.59375 350.570312 L 366.722656 350.570312 C 369.546875 350.570312 371.851562 348.265625 371.851562 345.441406 C 371.851562 342.613281 369.546875 340.308594 366.722656 340.308594 " fill-opacity="1" fill-rule="nonzero"/><path fill="#1e81ce" d="M 392.367188 340.308594 L 387.238281 340.308594 C 384.414062 340.308594 382.109375 342.613281 382.109375 345.441406 C 382.109375 348.265625 384.414062 350.570312 387.238281 350.570312 L 392.367188 350.570312 C 395.191406 350.570312 397.496094 348.265625 397.496094 345.441406 C 397.496094 342.613281 395.191406 340.308594 392.367188 340.308594 " fill-opacity="1" fill-rule="nonzero"/><path fill="#1e81ce" d="M 438.53125 350.570312 L 464.175781 350.570312 C 467 350.570312 469.304688 348.265625 469.304688 345.441406 C 469.304688 342.613281 467 340.308594 464.175781 340.308594 L 438.53125 340.308594 C 435.707031 340.308594 433.402344 342.613281 433.402344 345.441406 C 433.402344 348.265625 435.707031 350.570312 438.53125 350.570312 " fill-opacity="1" fill-rule="nonzero"/><path fill="#1e81ce" d="M 418.011719 432.636719 L 371.851562 432.636719 C 369.027344 432.636719 366.722656 434.941406 366.722656 437.765625 C 366.722656 440.589844 369.027344 442.894531 371.851562 442.894531 L 418.011719 442.894531 C 420.839844 442.894531 423.144531 440.589844 423.144531 437.765625 C 423.144531 434.941406 420.839844 432.636719 418.011719 432.636719 " fill-opacity="1" fill-rule="nonzero"/><path fill="#1e81ce" d="M 407.753906 453.152344 L 371.851562 453.152344 C 369.027344 453.152344 366.722656 455.457031 366.722656 458.28125 C 366.722656 461.105469 369.027344 463.410156 371.851562 463.410156 L 407.753906 463.410156 C 410.582031 463.410156 412.882812 461.105469 412.882812 458.28125 C 412.882812 455.457031 410.582031 453.152344 407.753906 453.152344 " fill-opacity="1" fill-rule="nonzero"/><path fill="#1e81ce" d="M 453.917969 432.636719 L 438.53125 432.636719 C 435.707031 432.636719 433.402344 434.941406 433.402344 437.765625 C 433.402344 440.589844 435.707031 442.894531 438.53125 442.894531 L 453.917969 442.894531 C 456.742188 442.894531 459.046875 440.589844 459.046875 437.765625 C 459.046875 434.941406 456.742188 432.636719 453.917969 432.636719 " fill-opacity="1" fill-rule="nonzero"/><path fill="#1e81ce" d="M 443.660156 453.152344 L 428.273438 453.152344 C 425.445312 453.152344 423.144531 455.457031 423.144531 458.28125 C 423.144531 461.105469 425.445312 463.410156 428.273438 463.410156 L 443.660156 463.410156 C 446.484375 463.410156 448.789062 461.105469 448.789062 458.28125 C 448.789062 455.457031 446.484375 453.152344 443.660156 453.152344 " fill-opacity="1" fill-rule="nonzero"/></svg>