<svg xmlns="http://www.w3.org/2000/svg" xmlns:xlink="http://www.w3.org/1999/xlink" width="940" zoomAndPan="magnify" viewBox="0 0 705 591.000005" height="788" preserveAspectRatio="xMidYMid meet" version="1.0"><defs><filter x="0%" y="0%" width="100%" height="100%" id="ffdfb96b5a"><feColorMatrix values="0 0 0 0 1 0 0 0 0 1 0 0 0 0 1 0 0 0 1 0" color-interpolation-filters="sRGB"/></filter><mask id="d49c85f072"><g filter="url(#ffdfb96b5a)"><rect x="-70.5" width="846" fill="#000000" y="-59.100001" height="709.200006" fill-opacity="0.11"/></g></mask><clipPath id="c0945ddd2e"><path d="M 1 0.554688 L 179.507812 0.554688 L 179.507812 181.925781 L 1 181.925781 Z M 1 0.554688 " clip-rule="nonzero"/></clipPath><clipPath id="f04f4a85d2"><rect x="0" width="180" y="0" height="182"/></clipPath><mask id="0ec3e92e9d"><g filter="url(#ffdfb96b5a)"><rect x="-70.5" width="846" fill="#000000" y="-59.100001" height="709.200006" fill-opacity="0.11"/></g></mask><clipPath id="8be317b1b2"><path d="M 1 0.457031 L 331 0.457031 L 331 335.652344 L 1 335.652344 Z M 1 0.457031 " clip-rule="nonzero"/></clipPath><clipPath id="be2c5ff9cf"><rect x="0" width="332" y="0" height="336"/></clipPath><clipPath id="b824f57fda"><path d="M 434 373 L 496.441406 373 L 496.441406 442 L 434 442 Z M 434 373 " clip-rule="nonzero"/></clipPath><clipPath id="691e3b88f5"><path d="M 181.976562 374 L 247 374 L 247 443 L 181.976562 443 Z M 181.976562 374 " clip-rule="nonzero"/></clipPath><clipPath id="c0aad74d9e"><path d="M 352 262.34375 L 389 262.34375 L 389 325 L 352 325 Z M 352 262.34375 " clip-rule="nonzero"/></clipPath></defs><g mask="url(#d49c85f072)"><g transform="matrix(1, 0, 0, 1, 157, 27)"><g clip-path="url(#f04f4a85d2)"><g clip-path="url(#c0945ddd2e)"><path fill="#464f5b" d="M 135.730469 19.613281 C 152.382812 31.988281 165.996094 48.417969 173.308594 67.542969 C 180.621094 86.78125 181.746094 108.832031 171.847656 123.796875 C 162.058594 138.761719 141.46875 146.523438 124.257812 155.636719 C 107.042969 164.636719 93.203125 174.761719 76.101562 179.261719 C 59.113281 183.652344 38.863281 182.300781 26.375 171.726562 C 13.886719 161.261719 9.046875 141.460938 5.335938 123.007812 C 1.621094 104.671875 -1.078125 87.457031 3.199219 72.042969 C 7.472656 56.628906 18.722656 42.902344 32.5625 29.628906 C 46.402344 16.351562 62.828125 3.414062 81.054688 1.164062 C 99.167969 -1.085938 118.96875 7.238281 135.730469 19.613281 Z M 135.730469 19.613281 " fill-opacity="1" fill-rule="nonzero"/></g></g></g></g><g mask="url(#0ec3e92e9d)"><g transform="matrix(1, 0, 0, 1, 213, 225)"><g clip-path="url(#be2c5ff9cf)"><g clip-path="url(#8be317b1b2)"><path fill="#464f5b" d="M 250.671875 35.773438 C 281.460938 58.65625 306.632812 89.027344 320.152344 124.394531 C 333.675781 159.96875 335.753906 200.742188 317.449219 228.410156 C 299.351562 256.078125 261.28125 270.429688 229.453125 287.28125 C 197.621094 303.925781 172.035156 322.648438 140.414062 330.96875 C 109.003906 339.082031 71.554688 336.585938 48.464844 317.03125 C 25.375 297.683594 16.429688 261.070312 9.5625 226.953125 C 2.699219 193.042969 -2.292969 161.214844 5.609375 132.714844 C 13.515625 104.214844 34.320312 78.835938 59.90625 54.289062 C 85.496094 29.738281 115.867188 5.816406 149.566406 1.65625 C 183.0625 -2.503906 219.675781 12.890625 250.671875 35.773438 Z M 250.671875 35.773438 " fill-opacity="1" fill-rule="nonzero"/></g></g></g></g><path fill="#1e81ce" d="M 389.738281 292.671875 C 389.738281 294.414062 391.144531 295.820312 392.882812 295.820312 L 403.265625 295.820312 C 405.007812 295.820312 406.414062 294.414062 406.414062 292.671875 C 406.414062 290.933594 405.007812 289.527344 403.265625 289.527344 L 392.882812 289.527344 C 391.152344 289.527344 389.738281 290.941406 389.738281 292.671875 Z M 389.738281 292.671875 " fill-opacity="1" fill-rule="nonzero"/><path fill="#1e81ce" d="M 391.847656 288.628906 C 392.507812 288.628906 393.179688 288.421875 393.742188 287.988281 L 402.015625 281.71875 C 403.398438 280.671875 403.675781 278.695312 402.621094 277.3125 C 401.566406 275.933594 399.59375 275.65625 398.214844 276.707031 L 389.941406 282.980469 C 388.558594 284.023438 388.28125 286.003906 389.335938 287.386719 C 389.957031 288.195312 390.898438 288.628906 391.847656 288.628906 Z M 391.847656 288.628906 " fill-opacity="1" fill-rule="nonzero"/><path fill="#1e81ce" d="M 402.023438 303.636719 L 393.75 297.367188 C 392.359375 296.320312 390.390625 296.589844 389.34375 297.96875 C 388.296875 299.351562 388.566406 301.332031 389.949219 302.375 L 398.222656 308.648438 C 398.792969 309.078125 399.457031 309.285156 400.117188 309.285156 C 401.066406 309.285156 402.007812 308.851562 402.628906 308.035156 C 403.683594 306.660156 403.40625 304.683594 402.023438 303.636719 Z M 402.023438 303.636719 " fill-opacity="1" fill-rule="nonzero"/><g clip-path="url(#b824f57fda)"><path fill="#1e81ce" d="M 493.144531 374.980469 L 461.003906 374.980469 C 460.8125 374.484375 460.625 373.976562 460.4375 373.484375 L 456.53125 374.980469 L 437.964844 374.980469 C 436.226562 374.980469 434.820312 376.386719 434.820312 378.128906 L 434.820312 420.496094 C 434.820312 422.238281 436.226562 423.644531 437.964844 423.644531 L 450.6875 423.644531 L 450.6875 438.046875 C 450.6875 439.347656 451.480469 440.507812 452.6875 440.984375 C 453.054688 441.128906 453.449219 441.195312 453.832031 441.195312 C 454.699219 441.195312 455.542969 440.835938 456.144531 440.179688 L 461.875 433.960938 C 461.722656 435.285156 461.550781 436.601562 461.363281 437.910156 L 467.589844 438.832031 C 467.867188 436.96875 468.105469 435.074219 468.292969 433.199219 L 463.078125 432.660156 L 466.707031 428.710938 L 468.667969 428.851562 C 468.726562 428.050781 468.777344 427.234375 468.816406 426.425781 L 471.367188 423.644531 L 493.144531 423.644531 C 494.886719 423.644531 496.292969 422.238281 496.292969 420.496094 L 496.292969 378.128906 C 496.292969 376.386719 494.878906 374.980469 493.144531 374.980469 Z M 487.332031 412.109375 C 487.332031 414.089844 485.730469 415.699219 483.742188 415.699219 C 482.910156 415.699219 482.132812 415.414062 481.527344 414.929688 C 480.164062 415.625 478.609375 416.027344 476.964844 416.027344 C 472.976562 416.027344 469.527344 413.695312 467.902344 410.328125 L 468.105469 410.890625 C 468.785156 412.757812 467.820312 414.816406 465.957031 415.488281 C 465.554688 415.632812 465.136719 415.699219 464.730469 415.699219 C 463.265625 415.699219 461.886719 414.792969 461.355469 413.335938 L 459.847656 409.191406 L 451.21875 409.191406 L 449.714844 413.335938 C 449.035156 415.199219 446.984375 416.15625 445.117188 415.488281 C 443.253906 414.808594 442.300781 412.757812 442.96875 410.890625 L 452.164062 385.578125 C 452.679688 384.152344 454.027344 383.214844 455.535156 383.214844 C 457.039062 383.214844 458.386719 384.164062 458.902344 385.578125 L 467.199219 408.425781 C 467.003906 407.640625 466.894531 406.8125 466.894531 405.964844 C 466.894531 400.414062 471.40625 395.902344 476.957031 395.902344 C 478.070312 395.902344 479.140625 396.082031 480.148438 396.414062 L 480.148438 386.792969 C 480.148438 384.816406 481.75 383.207031 483.734375 383.207031 C 485.714844 383.207031 487.324219 384.808594 487.324219 386.792969 L 487.324219 412.109375 Z M 487.332031 412.109375 " fill-opacity="1" fill-rule="nonzero"/></g><path fill="#1e81ce" d="M 476.964844 403.078125 C 475.371094 403.078125 474.082031 404.371094 474.082031 405.964844 C 474.082031 407.558594 475.371094 408.847656 476.964844 408.847656 C 478.5625 408.847656 479.851562 407.558594 479.851562 405.964844 C 479.851562 404.371094 478.5625 403.078125 476.964844 403.078125 Z M 476.964844 403.078125 " fill-opacity="1" fill-rule="nonzero"/><path fill="#1e81ce" d="M 453.832031 402.015625 L 457.25 402.015625 L 455.542969 397.304688 Z M 453.832031 402.015625 " fill-opacity="1" fill-rule="nonzero"/><path fill="#1e81ce" d="M 469.128906 513.90625 L 458.828125 509.46875 L 462.015625 498.710938 C 462.328125 497.664062 461.992188 496.527344 461.164062 495.816406 C 460.339844 495.105469 459.164062 494.941406 458.171875 495.40625 L 441.71875 503.109375 C 441 503.445312 440.460938 504.074219 440.230469 504.832031 L 436.699219 516.761719 L 432.066406 518.933594 C 431 517.121094 429.75 515.417969 428.320312 513.851562 C 428.695312 513.488281 429.074219 513.136719 429.449219 512.777344 L 425.082031 508.242188 C 424.59375 508.714844 424.09375 509.183594 423.597656 509.648438 C 421.804688 508.363281 419.882812 507.292969 417.839844 506.425781 C 414.144531 504.867188 410.222656 504.074219 406.175781 504.074219 C 402.128906 504.074219 398.207031 504.867188 394.511719 506.425781 C 390.945312 507.941406 387.742188 510.097656 384.988281 512.84375 C 382.234375 515.589844 380.074219 518.796875 378.570312 522.367188 C 377.007812 526.0625 376.214844 529.984375 376.214844 534.03125 C 376.214844 535.0625 376.265625 536.085938 376.371094 537.089844 C 375.742188 537.285156 375.113281 537.472656 374.492188 537.652344 L 376.265625 543.695312 C 376.730469 543.554688 377.207031 543.417969 377.679688 543.269531 C 377.941406 544.085938 378.242188 544.886719 378.578125 545.6875 C 380.089844 549.253906 382.25 552.457031 384.996094 555.210938 C 387.742188 557.96875 390.945312 560.125 394.519531 561.628906 C 398.214844 563.191406 402.136719 563.984375 406.183594 563.984375 C 410.230469 563.984375 414.15625 563.191406 417.847656 561.628906 C 421.414062 560.117188 424.617188 557.960938 427.371094 555.210938 C 430.128906 552.464844 432.285156 549.261719 433.789062 545.6875 C 435.351562 541.996094 436.144531 538.070312 436.144531 534.023438 C 436.144531 530.558594 435.5625 527.183594 434.410156 523.960938 L 439.0625 521.789062 L 450.480469 526.707031 C 450.832031 526.863281 451.210938 526.9375 451.585938 526.9375 C 451.984375 526.9375 452.394531 526.847656 452.761719 526.675781 L 469.21875 518.976562 C 470.207031 518.507812 470.835938 517.511719 470.820312 516.417969 C 470.785156 515.320312 470.125 514.339844 469.128906 513.90625 Z M 423.425781 551.28125 C 418.8125 555.890625 412.691406 558.425781 406.167969 558.425781 C 399.644531 558.425781 393.523438 555.890625 388.910156 551.28125 C 384.300781 546.671875 381.765625 540.546875 381.765625 534.023438 C 381.765625 527.5 384.300781 521.378906 388.910156 516.769531 C 393.523438 512.15625 399.644531 509.625 406.167969 509.625 C 412.691406 509.625 418.8125 512.15625 423.425781 516.769531 C 424.804688 518.148438 426 519.671875 426.996094 521.289062 L 422.992188 523.167969 C 422.230469 521.992188 421.339844 520.886719 420.324219 519.875 C 416.550781 516.097656 411.523438 514.011719 406.175781 514.011719 C 400.828125 514.011719 395.800781 516.097656 392.027344 519.875 C 388.25 523.652344 386.164062 528.679688 386.164062 534.023438 C 386.164062 539.371094 388.25 544.398438 392.027344 548.175781 C 395.800781 551.949219 400.828125 554.035156 406.175781 554.035156 C 411.523438 554.035156 416.550781 551.949219 420.324219 548.175781 C 424.101562 544.398438 426.1875 539.371094 426.1875 534.023438 C 426.1875 532.023438 425.894531 530.066406 425.335938 528.210938 L 429.351562 526.332031 C 430.160156 528.785156 430.585938 531.367188 430.585938 534.023438 C 430.570312 540.546875 428.035156 546.671875 423.425781 551.28125 Z M 403.863281 535.191406 C 404.335938 536.199219 405.335938 536.796875 406.378906 536.796875 C 406.773438 536.796875 407.171875 536.714844 407.558594 536.535156 L 410.53125 535.144531 C 410.035156 537.089844 408.269531 538.535156 406.167969 538.535156 C 403.683594 538.535156 401.664062 536.515625 401.664062 534.03125 C 401.664062 531.546875 403.683594 529.527344 406.167969 529.527344 C 406.929688 529.527344 407.648438 529.714844 408.277344 530.058594 L 405.195312 531.5 C 403.8125 532.144531 403.207031 533.804688 403.863281 535.191406 Z M 406.167969 523.96875 C 400.617188 523.96875 396.105469 528.480469 396.105469 534.03125 C 396.105469 539.582031 400.617188 544.09375 406.167969 544.09375 C 411.71875 544.09375 416.230469 539.582031 416.230469 534.03125 C 416.230469 533.515625 416.191406 533.019531 416.117188 532.527344 L 420.210938 530.617188 C 420.480469 531.710938 420.621094 532.855469 420.621094 534.03125 C 420.621094 542.003906 414.136719 548.484375 406.167969 548.484375 C 398.199219 548.484375 391.714844 542.003906 391.714844 534.03125 C 391.714844 526.0625 398.199219 519.578125 406.167969 519.578125 C 410.972656 519.578125 415.242188 521.941406 417.875 525.5625 L 413.792969 527.476562 C 411.945312 525.328125 409.21875 523.96875 406.167969 523.96875 Z M 406.167969 523.96875 " fill-opacity="1" fill-rule="nonzero"/><path fill="#1e81ce" d="M 276.816406 314.351562 L 273.578125 308.957031 C 272.035156 309.882812 270.488281 310.855469 268.976562 311.84375 L 272.433594 317.097656 C 273.871094 316.160156 275.34375 315.234375 276.816406 314.351562 Z M 276.816406 314.351562 " fill-opacity="1" fill-rule="nonzero"/><path fill="#1e81ce" d="M 284.816406 309.953125 L 281.988281 304.332031 C 280.378906 305.140625 278.769531 305.988281 277.191406 306.871094 L 280.25 312.375 C 281.753906 311.53125 283.289062 310.722656 284.816406 309.953125 Z M 284.816406 309.953125 " fill-opacity="1" fill-rule="nonzero"/><path fill="#1e81ce" d="M 228.511719 367.878906 L 222.808594 365.214844 C 222.046875 366.847656 221.300781 368.523438 220.609375 370.191406 L 226.417969 372.613281 C 227.082031 371.027344 227.785156 369.433594 228.511719 367.878906 Z M 228.511719 367.878906 " fill-opacity="1" fill-rule="nonzero"/><path fill="#1e81ce" d="M 255.046875 330.945312 L 250.699219 326.394531 C 249.398438 327.636719 248.097656 328.925781 246.847656 330.226562 L 251.382812 334.59375 C 252.578125 333.359375 253.804688 332.132812 255.046875 330.945312 Z M 255.046875 330.945312 " fill-opacity="1" fill-rule="nonzero"/><path fill="#1e81ce" d="M 261.890625 324.882812 L 257.890625 320.015625 C 256.5 321.160156 255.113281 322.355469 253.773438 323.558594 L 257.972656 328.25 C 259.25 327.105469 260.566406 325.96875 261.890625 324.882812 Z M 261.890625 324.882812 " fill-opacity="1" fill-rule="nonzero"/><path fill="#1e81ce" d="M 269.15625 319.339844 L 265.527344 314.195312 C 264.054688 315.234375 262.582031 316.324219 261.152344 317.417969 L 264.996094 322.402344 C 266.359375 321.359375 267.757812 320.328125 269.15625 319.339844 Z M 269.15625 319.339844 " fill-opacity="1" fill-rule="nonzero"/><path fill="#1e81ce" d="M 293.132812 306.160156 L 290.738281 300.339844 C 289.070312 301.027344 287.394531 301.753906 285.757812 302.515625 L 288.398438 308.230469 C 289.953125 307.511719 291.546875 306.816406 293.132812 306.160156 Z M 293.132812 306.160156 " fill-opacity="1" fill-rule="nonzero"/><path fill="#1e81ce" d="M 301.699219 303.007812 L 299.746094 297.023438 C 298.035156 297.578125 296.3125 298.183594 294.621094 298.820312 L 296.828125 304.714844 C 298.429688 304.109375 300.070312 303.539062 301.699219 303.007812 Z M 301.699219 303.007812 " fill-opacity="1" fill-rule="nonzero"/><path fill="#1e81ce" d="M 232.691406 359.746094 L 227.203125 356.664062 C 226.320312 358.234375 225.464844 359.851562 224.644531 361.460938 L 230.261719 364.304688 C 231.03125 362.769531 231.847656 361.242188 232.691406 359.746094 Z M 232.691406 359.746094 " fill-opacity="1" fill-rule="nonzero"/><path fill="#1e81ce" d="M 248.671875 337.503906 L 243.996094 333.285156 C 242.785156 334.625 241.589844 336.007812 240.4375 337.394531 L 245.285156 341.417969 C 246.382812 340.09375 247.527344 338.777344 248.671875 337.503906 Z M 248.671875 337.503906 " fill-opacity="1" fill-rule="nonzero"/><path fill="#1e81ce" d="M 310.46875 300.496094 L 308.964844 294.382812 C 307.214844 294.816406 305.449219 295.28125 303.726562 295.789062 L 305.484375 301.828125 C 307.132812 301.355469 308.808594 300.90625 310.46875 300.496094 Z M 310.46875 300.496094 " fill-opacity="1" fill-rule="nonzero"/><path fill="#1e81ce" d="M 242.800781 344.515625 L 237.832031 340.65625 C 236.726562 342.078125 235.632812 343.550781 234.585938 345.015625 L 239.710938 348.660156 C 240.707031 347.261719 241.746094 345.863281 242.800781 344.515625 Z M 242.800781 344.515625 " fill-opacity="1" fill-rule="nonzero"/><path fill="#1e81ce" d="M 237.464844 351.9375 L 232.214844 348.457031 C 231.21875 349.960938 230.238281 351.503906 229.304688 353.050781 L 234.691406 356.3125 C 235.582031 354.839844 236.515625 353.367188 237.464844 351.9375 Z M 237.464844 351.9375 " fill-opacity="1" fill-rule="nonzero"/><path fill="#1e81ce" d="M 315.105469 299.449219 C 317.351562 304.386719 322.339844 307.828125 328.109375 307.828125 L 328.730469 307.828125 L 328.730469 326.117188 C 328.730469 329.574219 331.542969 332.394531 335.007812 332.394531 C 338.476562 332.394531 341.289062 329.582031 341.289062 326.117188 L 341.289062 307.828125 L 346.558594 307.828125 L 346.558594 279.265625 L 328.109375 279.265625 C 320.320312 279.265625 313.96875 285.539062 313.828125 293.285156 C 313.585938 293.335938 313.332031 293.394531 313.085938 293.441406 L 314.386719 299.597656 C 314.628906 299.546875 314.867188 299.5 315.105469 299.449219 Z M 315.105469 299.449219 " fill-opacity="1" fill-rule="nonzero"/><path fill="#1e81ce" d="M 232.796875 480.007812 L 227.3125 483.097656 C 228.210938 484.683594 229.148438 486.277344 230.113281 487.832031 L 235.460938 484.511719 C 234.546875 483.03125 233.652344 481.519531 232.796875 480.007812 Z M 232.796875 480.007812 " fill-opacity="1" fill-rule="nonzero"/><path fill="#1e81ce" d="M 243.070312 495.390625 L 238.117188 499.265625 C 239.246094 500.707031 240.414062 502.136719 241.601562 503.527344 L 246.390625 499.4375 C 245.253906 498.121094 244.140625 496.757812 243.070312 495.390625 Z M 243.070312 495.390625 " fill-opacity="1" fill-rule="nonzero"/><path fill="#1e81ce" d="M 224.957031 463.257812 L 219.070312 465.488281 C 219.71875 467.199219 220.410156 468.914062 221.132812 470.589844 L 226.917969 468.113281 C 226.230469 466.511719 225.578125 464.875 224.957031 463.257812 Z M 224.957031 463.257812 " fill-opacity="1" fill-rule="nonzero"/><path fill="#1e81ce" d="M 222.015625 454.488281 L 215.972656 456.261719 C 216.488281 458.011719 217.042969 459.777344 217.640625 461.5 L 223.601562 459.464844 C 223.035156 457.832031 222.503906 456.15625 222.015625 454.488281 Z M 222.015625 454.488281 " fill-opacity="1" fill-rule="nonzero"/><path fill="#1e81ce" d="M 237.644531 487.886719 L 232.410156 491.386719 C 233.425781 492.90625 234.488281 494.417969 235.558594 495.890625 L 240.644531 492.179688 C 239.613281 490.78125 238.609375 489.335938 237.644531 487.886719 Z M 237.644531 487.886719 " fill-opacity="1" fill-rule="nonzero"/><path fill="#1e81ce" d="M 219.742188 445.519531 L 213.585938 446.835938 C 213.96875 448.617188 214.394531 450.425781 214.84375 452.191406 L 220.933594 450.613281 C 220.507812 448.929688 220.109375 447.210938 219.742188 445.519531 Z M 219.742188 445.519531 " fill-opacity="1" fill-rule="nonzero"/><path fill="#1e81ce" d="M 228.5625 471.777344 L 222.863281 474.441406 C 223.640625 476.09375 224.457031 477.75 225.300781 479.371094 L 230.882812 476.460938 C 230.082031 474.929688 229.296875 473.355469 228.5625 471.777344 Z M 228.5625 471.777344 " fill-opacity="1" fill-rule="nonzero"/><g clip-path="url(#691e3b88f5)"><path fill="#1e81ce" d="M 218.753906 440.296875 L 235.96875 440.296875 C 241.714844 440.296875 246.390625 435.621094 246.390625 429.875 L 246.390625 386.3125 C 246.390625 380.566406 241.714844 375.890625 235.96875 375.890625 L 223.828125 375.890625 L 219.070312 374.089844 C 218.84375 374.6875 218.621094 375.292969 218.410156 375.890625 L 192.398438 375.890625 C 186.652344 375.890625 181.976562 380.566406 181.976562 386.3125 L 181.976562 429.875 C 181.976562 435.621094 186.652344 440.296875 192.398438 440.296875 L 212.367188 440.296875 C 212.492188 441.089844 212.628906 441.882812 212.769531 442.667969 L 218.964844 441.554688 C 218.890625 441.136719 218.816406 440.714844 218.753906 440.296875 Z M 226.117188 430.117188 L 220.640625 430.117188 L 220.640625 425.214844 L 226.117188 425.214844 Z M 230.328125 386.386719 L 235.804688 386.386719 L 235.804688 391.289062 L 230.328125 391.289062 Z M 230.328125 425.214844 L 235.804688 425.214844 L 235.804688 430.117188 L 230.328125 430.117188 Z M 220.640625 386.386719 L 226.117188 386.386719 L 226.117188 391.289062 L 220.640625 391.289062 Z M 210.945312 386.386719 L 216.421875 386.386719 L 216.421875 391.289062 L 210.945312 391.289062 Z M 201.257812 386.386719 L 206.734375 386.386719 L 206.734375 391.289062 L 201.257812 391.289062 Z M 197.050781 430.117188 L 191.570312 430.117188 L 191.570312 425.214844 L 197.050781 425.214844 Z M 197.050781 391.289062 L 191.570312 391.289062 L 191.570312 386.386719 L 197.050781 386.386719 Z M 206.734375 430.117188 L 201.257812 430.117188 L 201.257812 425.214844 L 206.734375 425.214844 Z M 206.972656 421.257812 C 206.433594 421.257812 205.886719 421.117188 205.402344 420.832031 C 204.429688 420.269531 203.832031 419.230469 203.832031 418.109375 L 203.832031 398.058594 C 203.832031 396.929688 204.429688 395.890625 205.402344 395.335938 C 206.375 394.773438 207.578125 394.773438 208.550781 395.335938 L 225.914062 405.359375 C 226.886719 405.921875 227.484375 406.960938 227.484375 408.082031 C 227.484375 409.199219 226.886719 410.246094 225.914062 410.800781 L 208.550781 420.824219 C 208.058594 421.117188 207.511719 421.257812 206.972656 421.257812 Z M 216.421875 430.117188 L 210.945312 430.117188 L 210.945312 425.214844 L 216.421875 425.214844 Z M 216.421875 430.117188 " fill-opacity="1" fill-rule="nonzero"/></g><path fill="#1e81ce" d="M 339.863281 542.597656 C 339.113281 542.597656 338.34375 542.589844 337.59375 542.574219 L 337.476562 548.867188 C 338.269531 548.886719 339.070312 548.894531 339.863281 548.894531 C 340.917969 548.894531 341.980469 548.878906 343.027344 548.851562 L 342.875 542.558594 C 341.875 542.589844 340.863281 542.597656 339.863281 542.597656 Z M 339.863281 542.597656 " fill-opacity="1" fill-rule="nonzero"/><path fill="#1e81ce" d="M 346.9375 542.402344 L 347.296875 548.6875 C 349.132812 548.582031 351 548.4375 352.828125 548.257812 L 352.207031 541.996094 C 350.449219 542.15625 348.683594 542.296875 346.9375 542.402344 Z M 346.9375 542.402344 " fill-opacity="1" fill-rule="nonzero"/><path fill="#1e81ce" d="M 365.425781 539.933594 L 366.726562 546.089844 C 368.523438 545.707031 370.347656 545.28125 372.128906 544.824219 L 370.558594 538.722656 C 368.867188 539.167969 367.144531 539.574219 365.425781 539.933594 Z M 365.425781 539.933594 " fill-opacity="1" fill-rule="nonzero"/><path fill="#1e81ce" d="M 327.675781 548.328125 C 329.507812 548.5 331.371094 548.632812 333.210938 548.730469 L 333.53125 542.445312 C 331.78125 542.355469 330.007812 542.222656 328.265625 542.066406 Z M 327.675781 548.328125 " fill-opacity="1" fill-rule="nonzero"/><path fill="#1e81ce" d="M 356.230469 541.519531 L 357.0625 547.757812 C 358.886719 547.511719 360.734375 547.226562 362.550781 546.90625 L 361.453125 540.710938 C 359.71875 541.011719 357.964844 541.292969 356.230469 541.519531 Z M 356.230469 541.519531 " fill-opacity="1" fill-rule="nonzero"/><path fill="#1e81ce" d="M 317.949219 547.039062 C 319.765625 547.347656 321.613281 547.625 323.433594 547.855469 L 324.226562 541.609375 C 322.484375 541.390625 320.726562 541.128906 319.003906 540.832031 Z M 317.949219 547.039062 " fill-opacity="1" fill-rule="nonzero"/><path fill="#1e81ce" d="M 298.917969 542.265625 C 300.667969 542.84375 302.449219 543.398438 304.214844 543.90625 L 305.949219 537.859375 C 304.265625 537.375 302.574219 536.851562 300.90625 536.296875 Z M 298.917969 542.265625 " fill-opacity="1" fill-rule="nonzero"/><path fill="#1e81ce" d="M 308.34375 545.019531 C 310.132812 545.46875 311.949219 545.886719 313.753906 546.253906 L 315.023438 540.089844 C 313.304688 539.738281 311.574219 539.347656 309.882812 538.914062 Z M 308.34375 545.019531 " fill-opacity="1" fill-rule="nonzero"/><path fill="#1e81ce" d="M 295.59375 516.851562 C 295.59375 516.75 295.582031 516.652344 295.574219 516.554688 L 284.996094 516.554688 C 281.554688 516.554688 278.753906 513.75 278.753906 510.308594 L 278.753906 501.253906 L 247.25 501.253906 C 245.710938 501.253906 244.46875 502.496094 244.46875 504.03125 L 244.46875 506.632812 L 244.386719 506.707031 C 244.410156 506.738281 244.4375 506.761719 244.46875 506.796875 L 244.46875 561.1875 C 244.46875 562.726562 245.710938 563.96875 247.25 563.96875 L 292.8125 563.96875 C 294.347656 563.96875 295.59375 562.726562 295.59375 561.1875 L 295.59375 538.953125 L 297.078125 534.949219 C 296.582031 534.769531 296.089844 534.570312 295.59375 534.382812 Z M 283.332031 554.796875 L 256.738281 554.796875 C 255.203125 554.796875 253.960938 553.554688 253.960938 552.015625 C 253.960938 550.480469 255.203125 549.238281 256.738281 549.238281 L 283.332031 549.238281 C 284.867188 549.238281 286.109375 550.480469 286.109375 552.015625 C 286.109375 553.554688 284.867188 554.796875 283.332031 554.796875 Z M 283.332031 545.371094 L 256.738281 545.371094 C 255.203125 545.371094 253.960938 544.128906 253.960938 542.589844 C 253.960938 541.054688 255.203125 539.8125 256.738281 539.8125 L 283.332031 539.8125 C 284.867188 539.8125 286.109375 541.054688 286.109375 542.589844 C 286.109375 544.128906 284.867188 545.371094 283.332031 545.371094 Z M 283.332031 535.945312 L 256.738281 535.945312 C 255.203125 535.945312 253.960938 534.703125 253.960938 533.164062 C 253.960938 531.628906 255.203125 530.386719 256.738281 530.386719 L 283.332031 530.386719 C 284.867188 530.386719 286.109375 531.628906 286.109375 533.164062 C 286.109375 534.703125 284.867188 535.945312 283.332031 535.945312 Z M 283.332031 526.519531 L 256.738281 526.519531 C 255.203125 526.519531 253.960938 525.277344 253.960938 523.742188 C 253.960938 522.203125 255.203125 520.960938 256.738281 520.960938 L 283.332031 520.960938 C 284.867188 520.960938 286.109375 522.203125 286.109375 523.742188 C 286.109375 525.277344 284.867188 526.519531 283.332031 526.519531 Z M 283.332031 526.519531 " fill-opacity="1" fill-rule="nonzero"/><path fill="#1e81ce" d="M 457.09375 456.515625 L 463.101562 458.394531 C 463.667969 456.597656 464.199219 454.765625 464.679688 452.941406 L 458.597656 451.332031 C 458.140625 453.066406 457.632812 454.804688 457.09375 456.515625 Z M 457.09375 456.515625 " fill-opacity="1" fill-rule="nonzero"/><path fill="#1e81ce" d="M 434.394531 498.203125 L 439.234375 502.226562 C 440.433594 500.777344 441.628906 499.28125 442.765625 497.777344 L 437.753906 493.96875 C 436.667969 495.398438 435.539062 496.824219 434.394531 498.203125 Z M 434.394531 498.203125 " fill-opacity="1" fill-rule="nonzero"/><path fill="#1e81ce" d="M 428.011719 505.316406 L 432.53125 509.695312 C 433.839844 508.347656 435.136719 506.949219 436.398438 505.535156 L 431.695312 501.351562 C 430.496094 502.691406 429.253906 504.023438 428.011719 505.316406 Z M 428.011719 505.316406 " fill-opacity="1" fill-rule="nonzero"/><path fill="#1e81ce" d="M 440.207031 490.625 L 445.347656 494.265625 C 446.433594 492.726562 447.507812 491.140625 448.519531 489.554688 L 443.222656 486.148438 C 442.257812 487.660156 441.246094 489.164062 440.207031 490.625 Z M 440.207031 490.625 " fill-opacity="1" fill-rule="nonzero"/><path fill="#1e81ce" d="M 449.984375 474.226562 L 455.625 477.023438 C 456.457031 475.332031 457.265625 473.605469 458.035156 471.882812 L 452.28125 469.339844 C 451.550781 470.984375 450.785156 472.625 449.984375 474.226562 Z M 449.984375 474.226562 " fill-opacity="1" fill-rule="nonzero"/><path fill="#1e81ce" d="M 445.414062 482.613281 L 450.816406 485.84375 C 451.78125 484.226562 452.722656 482.566406 453.621094 480.90625 L 448.078125 477.921875 C 447.226562 479.5 446.335938 481.078125 445.414062 482.613281 Z M 445.414062 482.613281 " fill-opacity="1" fill-rule="nonzero"/><path fill="#1e81ce" d="M 453.890625 465.515625 L 459.734375 467.859375 C 460.4375 466.109375 461.109375 464.320312 461.730469 462.546875 L 455.785156 460.460938 C 455.199219 462.144531 454.5625 463.847656 453.890625 465.515625 Z M 453.890625 465.515625 " fill-opacity="1" fill-rule="nonzero"/><path fill="#1e81ce" d="M 466.871094 443.140625 L 460.683594 442.011719 C 460.363281 443.777344 459.996094 445.550781 459.597656 447.300781 L 465.734375 448.707031 C 466.152344 446.859375 466.535156 444.988281 466.871094 443.140625 Z M 466.871094 443.140625 " fill-opacity="1" fill-rule="nonzero"/><path fill="#1e81ce" d="M 403.085938 314.449219 L 406.332031 309.054688 C 405.554688 308.589844 404.769531 308.125 403.984375 307.671875 L 400.855469 313.132812 C 401.589844 313.566406 402.34375 314.007812 403.085938 314.449219 Z M 403.085938 314.449219 " fill-opacity="1" fill-rule="nonzero"/><path fill="#1e81ce" d="M 438.621094 346.738281 L 443.679688 342.996094 C 442.542969 341.46875 441.367188 339.9375 440.164062 338.457031 L 435.277344 342.421875 C 436.414062 343.828125 437.542969 345.285156 438.621094 346.738281 Z M 438.621094 346.738281 " fill-opacity="1" fill-rule="nonzero"/><path fill="#1e81ce" d="M 448.855469 363.105469 L 454.4375 360.195312 C 453.554688 358.503906 452.632812 356.808594 451.675781 355.167969 L 446.230469 358.324219 C 447.136719 359.890625 448.019531 361.503906 448.855469 363.105469 Z M 448.855469 363.105469 " fill-opacity="1" fill-rule="nonzero"/><path fill="#1e81ce" d="M 444.066406 354.71875 L 449.402344 351.382812 C 448.390625 349.765625 447.335938 348.152344 446.246094 346.585938 L 441.066406 350.15625 C 442.09375 351.652344 443.101562 353.1875 444.066406 354.71875 Z M 444.066406 354.71875 " fill-opacity="1" fill-rule="nonzero"/><path fill="#1e81ce" d="M 452.984375 371.835938 L 458.777344 369.375 C 458.035156 367.625 457.242188 365.859375 456.417969 364.144531 L 450.734375 366.855469 C 451.519531 368.5 452.273438 370.175781 452.984375 371.835938 Z M 452.984375 371.835938 " fill-opacity="1" fill-rule="nonzero"/><path fill="#1e81ce" d="M 418.796875 325.675781 L 422.84375 320.851562 C 421.386719 319.625 419.875 318.414062 418.363281 317.253906 L 414.53125 322.25 C 415.976562 323.359375 417.40625 324.503906 418.796875 325.675781 Z M 418.796875 325.675781 " fill-opacity="1" fill-rule="nonzero"/><path fill="#1e81ce" d="M 425.949219 332.171875 L 430.363281 327.683594 C 429.007812 326.351562 427.601562 325.027344 426.179688 323.753906 L 421.96875 328.4375 C 423.316406 329.636719 424.648438 330.898438 425.949219 332.171875 Z M 425.949219 332.171875 " fill-opacity="1" fill-rule="nonzero"/><path fill="#1e81ce" d="M 432.570312 339.210938 L 437.320312 335.082031 C 436.070312 333.644531 434.769531 332.214844 433.460938 330.839844 L 428.902344 335.179688 C 430.144531 336.480469 431.378906 337.835938 432.570312 339.210938 Z M 432.570312 339.210938 " fill-opacity="1" fill-rule="nonzero"/><path fill="#1e81ce" d="M 414.816406 314.628906 C 413.261719 313.527344 411.667969 312.429688 410.074219 311.402344 L 406.648438 316.683594 C 408.171875 317.671875 409.691406 318.699219 411.164062 319.753906 Z M 414.816406 314.628906 " fill-opacity="1" fill-rule="nonzero"/><path fill="#1e81ce" d="M 292.933594 513.039062 L 282.277344 502.382812 L 282.277344 510.308594 C 282.277344 511.8125 283.503906 513.039062 285.007812 513.039062 Z M 292.933594 513.039062 " fill-opacity="1" fill-rule="nonzero"/><path fill="#1e81ce" d="M 210.121094 412.660156 L 218.042969 408.089844 L 210.121094 403.511719 Z M 210.121094 412.660156 " fill-opacity="1" fill-rule="nonzero"/><g clip-path="url(#c0aad74d9e)"><path fill="#1e81ce" d="M 377.171875 323.492188 C 377.761719 324.023438 378.523438 324.308594 379.289062 324.308594 C 379.722656 324.308594 380.15625 324.21875 380.566406 324.039062 C 381.703125 323.53125 382.4375 322.402344 382.4375 321.160156 L 382.445312 302.574219 C 386.171875 301.265625 388.855469 297.710938 388.855469 293.539062 C 388.855469 289.371094 386.171875 285.816406 382.445312 284.507812 L 382.4375 265.828125 C 382.4375 264.585938 381.703125 263.457031 380.566406 262.953125 C 379.429688 262.445312 378.097656 262.65625 377.171875 263.5 L 373.511719 266.816406 C 367.59375 272.179688 360.511719 276.0625 352.855469 278.179688 L 352.855469 308.816406 C 360.511719 310.933594 367.59375 314.816406 373.511719 320.179688 Z M 377.171875 323.492188 " fill-opacity="1" fill-rule="nonzero"/></g><path fill="#1e81ce" d="M 372.195312 485.460938 L 358.207031 485.460938 L 358.207031 472.519531 L 407.589844 472.519531 C 409.332031 472.519531 410.738281 471.113281 410.738281 469.371094 L 410.738281 454.101562 L 271.125 454.101562 L 271.125 469.371094 C 271.125 471.113281 272.53125 472.519531 274.273438 472.519531 L 323.65625 472.519531 L 323.65625 485.460938 L 309.667969 485.460938 C 307.925781 485.460938 306.519531 486.867188 306.519531 488.605469 C 306.519531 490.347656 307.925781 491.753906 309.667969 491.753906 L 372.203125 491.753906 C 373.945312 491.753906 375.351562 490.347656 375.351562 488.605469 C 375.351562 486.867188 373.9375 485.460938 372.195312 485.460938 Z M 372.195312 485.460938 " fill-opacity="1" fill-rule="nonzero"/><path fill="#1e81ce" d="M 340.027344 432.449219 C 347.320312 432.449219 354.203125 429.292969 358.96875 423.785156 L 355.976562 413.792969 C 355.640625 412.683594 355.945312 411.480469 356.769531 410.664062 C 357.585938 409.847656 358.789062 409.542969 359.902344 409.871094 L 364.765625 411.324219 C 364.878906 410.597656 364.960938 409.871094 365.007812 409.144531 C 365.050781 408.570312 365.066406 407.984375 365.066406 407.410156 C 365.066406 400.722656 362.460938 394.4375 357.734375 389.703125 C 353.007812 384.980469 346.714844 382.371094 340.027344 382.371094 C 333.339844 382.371094 327.054688 384.980469 322.324219 389.703125 C 317.597656 394.429688 314.988281 400.722656 314.988281 407.410156 C 314.988281 414.097656 317.597656 420.382812 322.324219 425.117188 C 327.046875 429.847656 333.339844 432.449219 340.027344 432.449219 Z M 330.039062 414.785156 C 330.039062 413.042969 331.445312 411.636719 333.1875 411.636719 C 334.925781 411.636719 336.332031 413.042969 336.332031 414.785156 L 336.332031 415.289062 C 336.332031 416.917969 337.65625 418.242188 339.285156 418.242188 L 339.644531 418.242188 C 339.765625 418.226562 339.898438 418.21875 340.027344 418.21875 C 340.160156 418.21875 340.289062 418.226562 340.414062 418.242188 L 340.773438 418.242188 C 342.398438 418.242188 343.722656 416.917969 343.722656 415.289062 L 343.722656 415.019531 C 343.722656 413.875 343.054688 412.828125 342.007812 412.355469 L 335.441406 409.371094 C 332.164062 407.875 330.039062 404.582031 330.039062 400.976562 L 330.039062 400.773438 C 330.039062 396.503906 332.941406 392.910156 336.882812 391.847656 L 336.882812 390.398438 C 336.882812 388.65625 338.289062 387.253906 340.027344 387.253906 C 341.769531 387.253906 343.175781 388.65625 343.175781 390.398438 L 343.175781 391.847656 C 347.109375 392.910156 350.015625 396.503906 350.015625 400.773438 C 350.015625 402.515625 348.613281 403.917969 346.871094 403.917969 C 345.128906 403.917969 343.722656 402.515625 343.722656 400.773438 C 343.722656 399.144531 342.398438 397.820312 340.773438 397.820312 L 339.285156 397.820312 C 337.65625 397.820312 336.332031 399.144531 336.332031 400.773438 L 336.332031 400.976562 C 336.332031 402.121094 337.003906 403.167969 338.050781 403.640625 L 344.613281 406.625 C 347.890625 408.121094 350.015625 411.414062 350.015625 415.019531 L 350.015625 415.289062 C 350.015625 419.558594 347.117188 423.152344 343.175781 424.21875 L 343.175781 425.910156 C 343.175781 427.648438 341.769531 429.054688 340.027344 429.054688 C 338.289062 429.054688 336.882812 427.648438 336.882812 425.910156 L 336.882812 424.21875 C 332.949219 423.152344 330.039062 419.558594 330.039062 415.289062 Z M 330.039062 414.785156 " fill-opacity="1" fill-rule="nonzero"/><path fill="#1e81ce" d="M 271.125 370.117188 L 271.125 447.800781 L 410.738281 447.800781 L 410.738281 370.117188 C 410.738281 368.378906 409.332031 366.972656 407.589844 366.972656 L 274.273438 366.972656 C 272.53125 366.972656 271.125 368.378906 271.125 370.117188 Z M 311.164062 395.214844 C 312.742188 391.488281 315 388.136719 317.875 385.257812 C 320.753906 382.378906 324.105469 380.125 327.832031 378.546875 C 331.699219 376.910156 335.800781 376.085938 340.027344 376.085938 C 344.253906 376.085938 348.359375 376.910156 352.226562 378.546875 C 355.953125 380.125 359.304688 382.378906 362.179688 385.257812 C 365.058594 388.136719 367.316406 391.488281 368.890625 395.214844 C 370.527344 399.082031 371.351562 403.183594 371.351562 407.410156 C 371.351562 408.128906 371.328125 408.855469 371.28125 409.578125 C 371.199219 410.777344 371.042969 411.972656 370.828125 413.148438 L 385.25 417.472656 C 386.3125 417.792969 387.128906 418.640625 387.398438 419.722656 C 387.667969 420.800781 387.359375 421.9375 386.574219 422.710938 L 384.390625 424.894531 L 389.703125 430.207031 C 390.929688 431.433594 390.929688 433.429688 389.703125 434.65625 L 380.761719 443.597656 C 380.148438 444.210938 379.339844 444.523438 378.539062 444.523438 C 377.738281 444.523438 376.929688 444.210938 376.316406 443.597656 L 371 438.285156 L 368.820312 440.46875 C 368.035156 441.253906 366.898438 441.5625 365.828125 441.292969 C 364.757812 441.023438 363.898438 440.207031 363.578125 439.144531 L 361.035156 430.648438 C 355.316406 435.824219 347.859375 438.734375 340.035156 438.734375 C 335.808594 438.734375 331.707031 437.910156 327.839844 436.273438 C 324.113281 434.695312 320.761719 432.441406 317.882812 429.5625 C 315.007812 426.6875 312.75 423.335938 311.171875 419.605469 C 309.539062 415.738281 308.710938 411.636719 308.710938 407.410156 C 308.695312 403.183594 309.53125 399.082031 311.164062 395.214844 Z M 311.164062 395.214844 " fill-opacity="1" fill-rule="nonzero"/><path fill="#1e81ce" d="M 368.089844 432.292969 L 368.769531 431.613281 C 369.359375 431.027344 370.160156 430.691406 370.992188 430.691406 C 371.828125 430.691406 372.628906 431.027344 373.214844 431.613281 L 378.53125 436.929688 L 383.027344 432.433594 L 377.710938 427.117188 C 377.125 426.53125 376.789062 425.730469 376.789062 424.894531 C 376.789062 424.0625 377.125 423.261719 377.710938 422.671875 L 378.390625 421.992188 L 363.675781 417.578125 Z M 368.089844 432.292969 " fill-opacity="1" fill-rule="nonzero"/></svg>