<svg xmlns="http://www.w3.org/2000/svg" xmlns:xlink="http://www.w3.org/1999/xlink" width="940" zoomAndPan="magnify" viewBox="0 0 705 591.000005" height="788" preserveAspectRatio="xMidYMid meet" version="1.0"><defs><filter x="0%" y="0%" width="100%" height="100%" id="0986e8a118"><feColorMatrix values="0 0 0 0 1 0 0 0 0 1 0 0 0 0 1 0 0 0 1 0" color-interpolation-filters="sRGB"/></filter><mask id="b60986d3c9"><g filter="url(#0986e8a118)"><rect x="-70.5" width="846" fill="#000000" y="-59.100001" height="709.200006" fill-opacity="0.11"/></g></mask><clipPath id="98b4bc3d93"><path d="M 1 0.0429688 L 183 0.0429688 L 183 185 L 1 185 Z M 1 0.0429688 " clip-rule="nonzero"/></clipPath><clipPath id="3386efb54a"><rect x="0" width="184" y="0" height="186"/></clipPath><mask id="f523d13f44"><g filter="url(#0986e8a118)"><rect x="-70.5" width="846" fill="#000000" y="-59.100001" height="709.200006" fill-opacity="0.11"/></g></mask><clipPath id="40214f75d5"><path d="M 1 0.0195312 L 338 0.0195312 L 338 342 L 1 342 Z M 1 0.0195312 " clip-rule="nonzero"/></clipPath><clipPath id="05d57259ba"><rect x="0" width="339" y="0" height="343"/></clipPath><clipPath id="92f9ddd8d7"><path d="M 188.808594 215 L 498.035156 215 L 498.035156 533.8125 L 188.808594 533.8125 Z M 188.808594 215 " clip-rule="nonzero"/></clipPath></defs><g mask="url(#b60986d3c9)"><g transform="matrix(1, 0, 0, 1, 153, 22)"><g clip-path="url(#3386efb54a)"><g clip-path="url(#98b4bc3d93)"><path fill="#464f5b" d="M 138.515625 19.574219 C 155.507812 32.199219 169.398438 48.960938 176.859375 68.476562 C 184.320312 88.105469 185.46875 110.605469 175.367188 125.875 C 165.378906 141.140625 144.371094 149.0625 126.808594 158.359375 C 109.246094 167.542969 95.125 177.875 77.675781 182.46875 C 60.34375 186.945312 39.679688 185.566406 26.9375 174.777344 C 14.195312 164.101562 9.257812 143.894531 5.46875 125.070312 C 1.679688 106.359375 -1.074219 88.792969 3.289062 73.066406 C 7.652344 57.339844 19.128906 43.335938 33.25 29.789062 C 47.371094 16.246094 64.128906 3.042969 82.726562 0.746094 C 101.207031 -1.550781 121.414062 6.945312 138.515625 19.574219 Z M 138.515625 19.574219 " fill-opacity="1" fill-rule="nonzero"/></g></g></g></g><g mask="url(#f523d13f44)"><g transform="matrix(1, 0, 0, 1, 210, 224)"><g clip-path="url(#05d57259ba)"><g clip-path="url(#40214f75d5)"><path fill="#464f5b" d="M 255.929688 36.078125 C 287.34375 59.425781 313.027344 90.417969 326.820312 126.5 C 340.617188 162.796875 342.742188 204.398438 324.0625 232.628906 C 305.597656 260.859375 266.753906 275.503906 234.277344 292.695312 C 201.804688 309.675781 175.695312 328.777344 143.433594 337.269531 C 111.382812 345.546875 73.175781 343 49.617188 323.046875 C 26.054688 303.308594 16.929688 265.953125 9.925781 231.140625 C 2.921875 196.542969 -2.175781 164.070312 5.890625 134.988281 C 13.957031 105.910156 35.183594 80.015625 61.289062 54.96875 C 87.398438 29.921875 118.386719 5.515625 152.773438 1.269531 C 186.945312 -2.976562 224.300781 12.730469 255.929688 36.078125 Z M 255.929688 36.078125 " fill-opacity="1" fill-rule="nonzero"/></g></g></g></g><g clip-path="url(#92f9ddd8d7)"><path fill="#1e81ce" d="M 285.019531 425.359375 L 483.730469 425.359375 C 491.648438 425.359375 498.105469 431.816406 498.105469 439.734375 L 498.105469 519.53125 C 498.105469 527.449219 491.648438 533.910156 483.730469 533.910156 L 285.019531 533.910156 C 277.101562 533.910156 270.644531 527.449219 270.644531 519.53125 L 270.644531 439.734375 C 270.644531 431.816406 277.101562 425.359375 285.019531 425.359375 Z M 392.222656 224.503906 C 389.753906 223.980469 388.179688 221.554688 388.703125 219.085938 C 389.222656 216.617188 391.648438 215.042969 394.117188 215.566406 L 420.300781 221.113281 C 422.769531 221.636719 424.347656 224.0625 423.824219 226.53125 C 423.785156 226.726562 423.730469 226.914062 423.667969 227.097656 L 415.414062 252.449219 C 414.632812 254.847656 412.054688 256.160156 409.65625 255.378906 C 407.257812 254.597656 405.945312 252.023438 406.722656 249.621094 L 411.328125 235.480469 L 203.816406 355.289062 C 201.632812 356.542969 198.847656 355.789062 197.59375 353.605469 C 196.339844 351.425781 197.09375 348.640625 199.273438 347.382812 L 406.769531 227.585938 Z M 232.132812 486.421875 L 232.132812 414.703125 L 192.699219 414.703125 C 190.5625 414.703125 188.808594 416.457031 188.808594 418.59375 L 188.808594 482.53125 C 188.808594 484.667969 190.5625 486.421875 192.699219 486.421875 Z M 442.035156 416.203125 L 442.035156 289.566406 C 442.035156 287.425781 440.28125 285.675781 438.144531 285.675781 L 402.601562 285.675781 C 400.464844 285.675781 398.714844 287.425781 398.714844 289.566406 L 398.714844 416.203125 Z M 389.558594 416.203125 L 389.558594 316.390625 L 350.125 316.390625 C 347.988281 316.390625 346.238281 318.144531 346.238281 320.28125 L 346.238281 416.203125 Z M 337.082031 416.203125 L 337.082031 347.109375 L 297.652344 347.109375 C 295.515625 347.109375 293.761719 348.863281 293.761719 351 L 293.761719 416.203125 Z M 241.285156 486.421875 L 261.488281 486.421875 L 261.488281 439.734375 C 261.488281 426.902344 271.824219 416.433594 284.605469 416.210938 L 284.605469 385.507812 L 245.175781 385.507812 C 243.039062 385.507812 241.285156 387.257812 241.285156 389.394531 Z M 406.75 508.980469 L 366.578125 508.980469 L 366.578125 484.210938 L 397.726562 484.210938 C 400.253906 484.210938 402.304688 482.160156 402.304688 479.632812 C 402.304688 477.105469 400.253906 475.054688 397.726562 475.054688 L 366.578125 475.054688 L 366.578125 450.289062 L 406.75 450.289062 C 409.277344 450.289062 411.328125 448.238281 411.328125 445.710938 C 411.328125 443.183594 409.277344 441.132812 406.75 441.132812 L 362 441.132812 C 359.472656 441.132812 357.421875 443.183594 357.421875 445.710938 L 357.421875 513.554688 C 357.421875 516.085938 359.472656 518.132812 362 518.132812 L 406.75 518.132812 C 409.277344 518.132812 411.328125 516.085938 411.328125 513.554688 C 411.328125 511.027344 409.277344 508.980469 406.75 508.980469 Z M 343.84375 461.589844 C 343.84375 455.960938 341.542969 450.84375 337.839844 447.140625 C 334.132812 443.433594 329.015625 441.132812 323.386719 441.132812 L 310.394531 441.132812 C 304.765625 441.132812 299.652344 443.433594 295.945312 447.140625 C 292.238281 450.84375 289.941406 455.960938 289.941406 461.589844 L 289.941406 466.160156 C 289.941406 471.136719 291.964844 475.648438 295.234375 478.917969 C 298.503906 482.183594 303.015625 484.210938 307.988281 484.210938 L 325.792969 484.210938 C 328.242188 484.210938 330.464844 485.210938 332.078125 486.824219 C 333.6875 488.4375 334.6875 490.660156 334.6875 493.105469 L 334.6875 497.679688 C 334.6875 500.78125 333.414062 503.605469 331.367188 505.65625 C 329.316406 507.707031 326.492188 508.980469 323.386719 508.980469 L 310.394531 508.980469 C 307.292969 508.980469 304.46875 507.707031 302.417969 505.65625 C 300.367188 503.605469 299.09375 500.78125 299.09375 497.679688 C 299.09375 495.148438 297.046875 493.101562 294.515625 493.101562 C 291.988281 493.101562 289.941406 495.148438 289.941406 497.679688 C 289.941406 503.308594 292.242188 508.421875 295.945312 512.128906 C 299.652344 515.835938 304.765625 518.132812 310.394531 518.132812 L 323.386719 518.132812 C 329.015625 518.132812 334.132812 515.835938 337.835938 512.128906 C 341.542969 508.421875 343.84375 503.308594 343.84375 497.679688 L 343.84375 493.105469 C 343.84375 488.132812 341.816406 483.621094 338.546875 480.351562 C 335.28125 477.082031 330.765625 475.058594 325.792969 475.058594 L 307.988281 475.058594 C 305.542969 475.058594 303.320312 474.058594 301.707031 472.445312 C 300.09375 470.832031 299.09375 468.609375 299.09375 466.160156 L 299.09375 461.589844 C 299.09375 458.488281 300.367188 455.664062 302.417969 453.613281 C 304.46875 451.5625 307.292969 450.289062 310.394531 450.289062 L 323.386719 450.289062 C 326.488281 450.289062 329.316406 451.5625 331.367188 453.613281 C 333.417969 455.664062 334.6875 458.488281 334.6875 461.589844 C 334.6875 464.117188 336.738281 466.167969 339.265625 466.167969 C 341.792969 466.167969 343.84375 464.117188 343.84375 461.589844 Z M 445.363281 441.132812 C 439.734375 441.132812 434.617188 443.433594 430.914062 447.140625 C 427.207031 450.84375 424.90625 455.960938 424.90625 461.589844 L 424.90625 497.675781 C 424.90625 503.308594 427.207031 508.421875 430.914062 512.128906 C 434.617188 515.832031 439.734375 518.132812 445.363281 518.132812 L 458.355469 518.132812 C 463.984375 518.132812 469.101562 515.832031 472.804688 512.128906 C 476.511719 508.421875 478.8125 503.308594 478.8125 497.675781 L 478.8125 461.589844 C 478.8125 455.960938 476.511719 450.84375 472.804688 447.140625 C 469.101562 443.433594 463.984375 441.132812 458.355469 441.132812 Z M 458.355469 450.289062 L 445.363281 450.289062 C 442.261719 450.289062 439.4375 451.5625 437.386719 453.613281 C 435.335938 455.664062 434.0625 458.488281 434.0625 461.589844 L 434.0625 497.675781 C 434.0625 500.78125 435.335938 503.605469 437.386719 505.65625 C 439.4375 507.707031 442.261719 508.980469 445.363281 508.980469 L 458.355469 508.980469 C 461.457031 508.980469 464.28125 507.707031 466.332031 505.65625 C 468.382812 503.605469 469.65625 500.78125 469.65625 497.675781 L 469.65625 461.589844 C 469.65625 458.488281 468.382812 455.664062 466.332031 453.613281 C 464.28125 451.5625 461.457031 450.289062 458.355469 450.289062 Z M 458.355469 450.289062 " fill-opacity="1" fill-rule="evenodd"/></g></svg>