<svg xmlns="http://www.w3.org/2000/svg" xmlns:xlink="http://www.w3.org/1999/xlink" width="940" zoomAndPan="magnify" viewBox="0 0 705 591.000005" height="788" preserveAspectRatio="xMidYMid meet" version="1.0"><defs><filter x="0%" y="0%" width="100%" height="100%" id="626b9a8308"><feColorMatrix values="0 0 0 0 1 0 0 0 0 1 0 0 0 0 1 0 0 0 1 0" color-interpolation-filters="sRGB"/></filter><mask id="e748c90812"><g filter="url(#626b9a8308)"><rect x="-70.5" width="846" fill="#000000" y="-59.100001" height="709.200006" fill-opacity="0.11"/></g></mask><clipPath id="8bbf6da390"><path d="M 1 0.523438 L 183 0.523438 L 183 185.25 L 1 185.25 Z M 1 0.523438 " clip-rule="nonzero"/></clipPath><clipPath id="9f29ff5fba"><rect x="0" width="184" y="0" height="186"/></clipPath><mask id="a694f19e20"><g filter="url(#626b9a8308)"><rect x="-70.5" width="846" fill="#000000" y="-59.100001" height="709.200006" fill-opacity="0.11"/></g></mask><clipPath id="9d77f37234"><path d="M 1 0.261719 L 337 0.261719 L 337 341.441406 L 1 341.441406 Z M 1 0.261719 " clip-rule="nonzero"/></clipPath><clipPath id="37e127a4e6"><rect x="0" width="338" y="0" height="342"/></clipPath><clipPath id="360354295a"><path d="M 187.800781 221.492188 L 502.269531 221.492188 L 502.269531 535.960938 L 187.800781 535.960938 Z M 187.800781 221.492188 " clip-rule="nonzero"/></clipPath></defs><g mask="url(#e748c90812)"><g transform="matrix(1, 0, 0, 1, 153, 22)"><g clip-path="url(#9f29ff5fba)"><g clip-path="url(#8bbf6da390)"><path fill="#464f5b" d="M 138.644531 20.109375 C 155.601562 32.710938 169.460938 49.433594 176.90625 68.910156 C 184.351562 88.496094 185.5 110.949219 175.417969 126.1875 C 165.453125 141.421875 144.488281 149.324219 126.960938 158.605469 C 109.433594 167.769531 95.34375 178.078125 77.933594 182.660156 C 60.636719 187.128906 40.015625 185.753906 27.300781 174.984375 C 14.585938 164.332031 9.660156 144.171875 5.878906 125.382812 C 2.097656 106.710938 -0.648438 89.183594 3.703125 73.492188 C 8.054688 57.796875 19.511719 43.820312 33.601562 30.304688 C 47.691406 16.789062 64.414062 3.613281 82.972656 1.324219 C 101.417969 -0.96875 121.578125 7.507812 138.644531 20.109375 Z M 138.644531 20.109375 " fill-opacity="1" fill-rule="nonzero"/></g></g></g></g><g mask="url(#a694f19e20)"><g transform="matrix(1, 0, 0, 1, 211, 224)"><g clip-path="url(#37e127a4e6)"><g clip-path="url(#9d77f37234)"><path fill="#464f5b" d="M 254.6875 36.152344 C 286.035156 59.453125 311.664062 90.375 325.429688 126.382812 C 339.199219 162.601562 341.316406 204.117188 322.675781 232.285156 C 304.25 260.457031 265.488281 275.070312 233.082031 292.226562 C 200.675781 309.171875 174.625 328.234375 142.429688 336.707031 C 110.445312 344.96875 72.320312 342.425781 48.8125 322.515625 C 25.300781 302.816406 16.191406 265.539062 9.203125 230.804688 C 2.214844 196.277344 -2.871094 163.871094 5.179688 134.855469 C 13.226562 105.835938 34.40625 79.996094 60.460938 55.003906 C 86.511719 30.011719 117.4375 5.652344 151.75 1.417969 C 185.847656 -2.820312 223.128906 12.855469 254.6875 36.152344 Z M 254.6875 36.152344 " fill-opacity="1" fill-rule="nonzero"/></g></g></g></g><g clip-path="url(#360354295a)"><path fill="#1e81ce" d="M 468.964844 221.492188 L 220.949219 221.492188 C 219.867188 221.496094 218.78125 221.546875 217.703125 221.65625 C 216.621094 221.761719 215.550781 221.921875 214.484375 222.136719 C 213.421875 222.347656 212.371094 222.613281 211.332031 222.929688 C 210.292969 223.246094 209.273438 223.609375 208.269531 224.027344 C 207.269531 224.441406 206.289062 224.90625 205.332031 225.417969 C 204.375 225.929688 203.445312 226.488281 202.542969 227.089844 C 201.640625 227.695312 200.769531 228.339844 199.929688 229.03125 C 199.089844 229.71875 198.289062 230.445312 197.519531 231.214844 C 196.753906 231.980469 196.023438 232.785156 195.335938 233.625 C 194.648438 234.460938 194.003906 235.332031 193.398438 236.234375 C 192.796875 237.136719 192.238281 238.066406 191.726562 239.023438 C 191.214844 239.980469 190.75 240.960938 190.332031 241.964844 C 189.917969 242.964844 189.550781 243.984375 189.234375 245.023438 C 188.921875 246.0625 188.65625 247.113281 188.445312 248.179688 C 188.230469 249.242188 188.070312 250.316406 187.964844 251.394531 C 187.855469 252.476562 187.800781 253.558594 187.800781 254.644531 L 187.800781 502.660156 C 187.800781 503.742188 187.855469 504.828125 187.964844 505.90625 C 188.070312 506.988281 188.230469 508.058594 188.445312 509.125 C 188.65625 510.1875 188.921875 511.238281 189.234375 512.277344 C 189.550781 513.316406 189.917969 514.335938 190.332031 515.339844 C 190.75 516.339844 191.214844 517.320312 191.726562 518.277344 C 192.238281 519.234375 192.796875 520.164062 193.398438 521.066406 C 194.003906 521.96875 194.648438 522.839844 195.335938 523.679688 C 196.023438 524.519531 196.753906 525.320312 197.519531 526.089844 C 198.289062 526.855469 199.089844 527.582031 199.929688 528.273438 C 200.769531 528.960938 201.640625 529.605469 202.542969 530.210938 C 203.445312 530.8125 204.375 531.371094 205.332031 531.882812 C 206.289062 532.394531 207.269531 532.859375 208.269531 533.277344 C 209.273438 533.691406 210.292969 534.058594 211.332031 534.375 C 212.371094 534.6875 213.421875 534.953125 214.484375 535.164062 C 215.550781 535.378906 216.621094 535.539062 217.703125 535.644531 C 218.78125 535.753906 219.867188 535.808594 220.949219 535.808594 L 468.964844 535.808594 C 470.050781 535.808594 471.132812 535.753906 472.214844 535.644531 C 473.292969 535.539062 474.367188 535.378906 475.429688 535.164062 C 476.496094 534.953125 477.546875 534.6875 478.585938 534.375 C 479.625 534.058594 480.644531 533.691406 481.644531 533.277344 C 482.648438 532.859375 483.628906 532.394531 484.585938 531.882812 C 485.542969 531.371094 486.472656 530.8125 487.375 530.210938 C 488.277344 529.605469 489.148438 528.960938 489.984375 528.273438 C 490.824219 527.582031 491.628906 526.855469 492.394531 526.089844 C 493.164062 525.320312 493.890625 524.519531 494.578125 523.679688 C 495.269531 522.839844 495.914062 521.96875 496.519531 521.066406 C 497.121094 520.164062 497.679688 519.234375 498.191406 518.277344 C 498.703125 517.320312 499.167969 516.339844 499.582031 515.339844 C 500 514.335938 500.363281 513.316406 500.679688 512.277344 C 500.996094 511.238281 501.261719 510.1875 501.472656 509.125 C 501.6875 508.058594 501.847656 506.988281 501.953125 505.90625 C 502.0625 504.828125 502.113281 503.742188 502.117188 502.660156 L 502.117188 254.644531 C 502.113281 253.558594 502.0625 252.476562 501.953125 251.394531 C 501.847656 250.316406 501.6875 249.242188 501.472656 248.179688 C 501.261719 247.113281 500.996094 246.0625 500.679688 245.023438 C 500.363281 243.984375 500 242.964844 499.582031 241.964844 C 499.167969 240.960938 498.703125 239.980469 498.191406 239.023438 C 497.679688 238.066406 497.121094 237.136719 496.519531 236.234375 C 495.914062 235.332031 495.269531 234.460938 494.578125 233.625 C 493.890625 232.785156 493.164062 231.980469 492.394531 231.214844 C 491.628906 230.445312 490.824219 229.71875 489.984375 229.03125 C 489.148438 228.339844 488.277344 227.695312 487.375 227.089844 C 486.472656 226.488281 485.542969 225.929688 484.585938 225.417969 C 483.628906 224.90625 482.648438 224.441406 481.644531 224.027344 C 480.644531 223.609375 479.625 223.246094 478.585938 222.929688 C 477.546875 222.613281 476.496094 222.347656 475.429688 222.136719 C 474.367188 221.921875 473.292969 221.761719 472.214844 221.65625 C 471.132812 221.546875 470.050781 221.496094 468.964844 221.492188 Z M 494.75 502.660156 C 494.75 503.503906 494.707031 504.34375 494.621094 505.183594 C 494.539062 506.023438 494.414062 506.859375 494.25 507.6875 C 494.082031 508.515625 493.878906 509.332031 493.632812 510.140625 C 493.386719 510.949219 493.101562 511.742188 492.777344 512.519531 C 492.457031 513.300781 492.09375 514.0625 491.695312 514.808594 C 491.296875 515.550781 490.863281 516.273438 490.394531 516.976562 C 489.925781 517.679688 489.421875 518.355469 488.886719 519.007812 C 488.351562 519.660156 487.785156 520.285156 487.1875 520.882812 C 486.59375 521.480469 485.96875 522.046875 485.316406 522.582031 C 484.664062 523.117188 483.984375 523.617188 483.285156 524.085938 C 482.582031 524.558594 481.859375 524.992188 481.113281 525.390625 C 480.371094 525.789062 479.609375 526.148438 478.828125 526.472656 C 478.046875 526.796875 477.253906 527.078125 476.445312 527.324219 C 475.640625 527.570312 474.820312 527.777344 473.992188 527.941406 C 473.167969 528.105469 472.332031 528.230469 471.492188 528.316406 C 470.652344 528.398438 469.808594 528.441406 468.964844 528.441406 L 220.949219 528.441406 C 220.105469 528.441406 219.265625 528.398438 218.425781 528.316406 C 217.585938 528.230469 216.75 528.105469 215.921875 527.941406 C 215.09375 527.777344 214.277344 527.570312 213.46875 527.324219 C 212.660156 527.078125 211.867188 526.796875 211.089844 526.472656 C 210.308594 526.148438 209.546875 525.789062 208.800781 525.390625 C 208.058594 524.992188 207.335938 524.558594 206.632812 524.089844 C 205.929688 523.617188 205.253906 523.117188 204.601562 522.582031 C 203.949219 522.046875 203.324219 521.480469 202.726562 520.882812 C 202.128906 520.285156 201.5625 519.660156 201.027344 519.007812 C 200.492188 518.355469 199.992188 517.679688 199.519531 516.976562 C 199.050781 516.273438 198.617188 515.550781 198.21875 514.808594 C 197.820312 514.0625 197.460938 513.300781 197.136719 512.519531 C 196.8125 511.742188 196.53125 510.949219 196.285156 510.140625 C 196.039062 509.332031 195.832031 508.515625 195.667969 507.6875 C 195.503906 506.859375 195.378906 506.023438 195.292969 505.183594 C 195.210938 504.34375 195.167969 503.503906 195.167969 502.660156 L 195.167969 295.160156 L 494.75 295.160156 Z M 494.75 287.792969 L 195.167969 287.792969 L 195.167969 254.644531 C 195.167969 253.800781 195.210938 252.957031 195.292969 252.117188 C 195.378906 251.277344 195.503906 250.441406 195.667969 249.617188 C 195.832031 248.789062 196.039062 247.96875 196.285156 247.164062 C 196.53125 246.355469 196.8125 245.5625 197.136719 244.78125 C 197.460938 244 197.820312 243.238281 198.21875 242.496094 C 198.617188 241.75 199.050781 241.027344 199.519531 240.324219 C 199.992188 239.625 200.492188 238.945312 201.027344 238.292969 C 201.5625 237.640625 202.128906 237.015625 202.726562 236.421875 C 203.324219 235.824219 203.949219 235.257812 204.601562 234.722656 C 205.253906 234.1875 205.929688 233.683594 206.632812 233.214844 C 207.335938 232.746094 208.058594 232.3125 208.800781 231.914062 C 209.546875 231.515625 210.308594 231.152344 211.089844 230.832031 C 211.867188 230.507812 212.660156 230.222656 213.46875 229.976562 C 214.277344 229.730469 215.09375 229.527344 215.921875 229.359375 C 216.75 229.195312 217.585938 229.070312 218.425781 228.988281 C 219.265625 228.902344 220.105469 228.859375 220.949219 228.859375 L 468.964844 228.859375 C 469.808594 228.859375 470.652344 228.902344 471.492188 228.988281 C 472.332031 229.070312 473.167969 229.195312 473.992188 229.359375 C 474.820312 229.527344 475.640625 229.730469 476.445312 229.976562 C 477.253906 230.222656 478.046875 230.507812 478.828125 230.832031 C 479.609375 231.152344 480.371094 231.515625 481.113281 231.914062 C 481.859375 232.3125 482.582031 232.746094 483.285156 233.214844 C 483.984375 233.683594 484.664062 234.1875 485.316406 234.722656 C 485.96875 235.257812 486.59375 235.824219 487.1875 236.421875 C 487.785156 237.015625 488.351562 237.640625 488.886719 238.292969 C 489.421875 238.945312 489.925781 239.625 490.394531 240.324219 C 490.863281 241.027344 491.296875 241.75 491.695312 242.496094 C 492.09375 243.238281 492.457031 244 492.777344 244.78125 C 493.101562 245.5625 493.386719 246.355469 493.632812 247.164062 C 493.878906 247.96875 494.082031 248.789062 494.25 249.617188 C 494.414062 250.441406 494.539062 251.277344 494.621094 252.117188 C 494.707031 252.957031 494.75 253.800781 494.75 254.644531 Z M 494.75 287.792969 " fill-opacity="1" fill-rule="nonzero"/></g><path fill="#1e81ce" d="M 225.863281 248.503906 C 225.136719 248.503906 224.417969 248.574219 223.707031 248.71875 C 222.996094 248.859375 222.304688 249.066406 221.632812 249.347656 C 220.964844 249.625 220.328125 249.964844 219.722656 250.367188 C 219.121094 250.769531 218.5625 251.226562 218.046875 251.742188 C 217.535156 252.253906 217.078125 252.8125 216.675781 253.414062 C 216.269531 254.019531 215.929688 254.65625 215.652344 255.324219 C 215.375 255.996094 215.164062 256.6875 215.023438 257.398438 C 214.882812 258.109375 214.8125 258.828125 214.8125 259.554688 C 214.8125 260.28125 214.882812 261 215.023438 261.710938 C 215.164062 262.421875 215.375 263.113281 215.652344 263.785156 C 215.929688 264.453125 216.269531 265.089844 216.675781 265.695312 C 217.078125 266.296875 217.535156 266.855469 218.046875 267.367188 C 218.5625 267.882812 219.121094 268.339844 219.722656 268.742188 C 220.328125 269.144531 220.964844 269.484375 221.632812 269.765625 C 222.304688 270.042969 222.996094 270.25 223.707031 270.390625 C 224.417969 270.535156 225.136719 270.605469 225.863281 270.605469 C 226.585938 270.605469 227.304688 270.535156 228.019531 270.390625 C 228.730469 270.25 229.421875 270.042969 230.089844 269.765625 C 230.761719 269.484375 231.398438 269.144531 232 268.742188 C 232.605469 268.339844 233.164062 267.882812 233.675781 267.367188 C 234.1875 266.855469 234.648438 266.296875 235.050781 265.695312 C 235.453125 265.089844 235.792969 264.453125 236.070312 263.785156 C 236.347656 263.113281 236.558594 262.421875 236.699219 261.710938 C 236.839844 261 236.914062 260.28125 236.914062 259.554688 C 236.910156 258.828125 236.839844 258.109375 236.699219 257.398438 C 236.554688 256.6875 236.347656 255.996094 236.066406 255.328125 C 235.789062 254.65625 235.449219 254.019531 235.046875 253.417969 C 234.644531 252.816406 234.183594 252.257812 233.671875 251.746094 C 233.160156 251.230469 232.601562 250.773438 232 250.371094 C 231.394531 249.96875 230.757812 249.625 230.089844 249.347656 C 229.417969 249.070312 228.726562 248.859375 228.015625 248.71875 C 227.304688 248.578125 226.585938 248.503906 225.863281 248.503906 Z M 225.863281 263.238281 C 225.375 263.238281 224.902344 263.144531 224.453125 262.957031 C 224 262.769531 223.601562 262.503906 223.257812 262.160156 C 222.914062 261.8125 222.644531 261.414062 222.460938 260.964844 C 222.273438 260.511719 222.179688 260.042969 222.179688 259.554688 C 222.179688 259.066406 222.273438 258.597656 222.460938 258.144531 C 222.644531 257.695312 222.914062 257.296875 223.257812 256.949219 C 223.601562 256.605469 224 256.339844 224.453125 256.152344 C 224.902344 255.964844 225.375 255.871094 225.863281 255.871094 C 226.351562 255.871094 226.820312 255.964844 227.273438 256.152344 C 227.722656 256.339844 228.121094 256.605469 228.464844 256.949219 C 228.8125 257.296875 229.078125 257.695312 229.265625 258.144531 C 229.453125 258.597656 229.546875 259.066406 229.546875 259.554688 C 229.546875 260.042969 229.453125 260.511719 229.265625 260.964844 C 229.078125 261.414062 228.8125 261.8125 228.464844 262.15625 C 228.121094 262.503906 227.722656 262.769531 227.269531 262.957031 C 226.820312 263.144531 226.351562 263.238281 225.863281 263.238281 Z M 225.863281 263.238281 " fill-opacity="1" fill-rule="nonzero"/><path fill="#1e81ce" d="M 304.441406 248.503906 C 303.714844 248.503906 302.996094 248.574219 302.285156 248.71875 C 301.574219 248.859375 300.882812 249.066406 300.210938 249.347656 C 299.542969 249.625 298.90625 249.964844 298.300781 250.367188 C 297.699219 250.769531 297.140625 251.226562 296.628906 251.742188 C 296.113281 252.253906 295.65625 252.8125 295.253906 253.414062 C 294.851562 254.019531 294.507812 254.65625 294.230469 255.324219 C 293.953125 255.996094 293.746094 256.6875 293.601562 257.398438 C 293.460938 258.109375 293.390625 258.828125 293.390625 259.554688 C 293.390625 260.28125 293.460938 261 293.601562 261.710938 C 293.746094 262.421875 293.953125 263.113281 294.230469 263.785156 C 294.507812 264.453125 294.851562 265.089844 295.253906 265.695312 C 295.65625 266.296875 296.113281 266.855469 296.628906 267.367188 C 297.140625 267.882812 297.699219 268.339844 298.300781 268.742188 C 298.90625 269.144531 299.542969 269.484375 300.210938 269.765625 C 300.882812 270.042969 301.574219 270.25 302.285156 270.390625 C 302.996094 270.535156 303.714844 270.605469 304.441406 270.605469 C 305.167969 270.605469 305.886719 270.535156 306.597656 270.390625 C 307.308594 270.25 308 270.042969 308.667969 269.765625 C 309.339844 269.484375 309.976562 269.144531 310.582031 268.742188 C 311.183594 268.339844 311.742188 267.882812 312.253906 267.367188 C 312.769531 266.855469 313.226562 266.296875 313.628906 265.695312 C 314.03125 265.089844 314.371094 264.453125 314.648438 263.785156 C 314.925781 263.113281 315.136719 262.421875 315.277344 261.710938 C 315.421875 261 315.492188 260.28125 315.492188 259.554688 C 315.492188 258.828125 315.417969 258.109375 315.277344 257.398438 C 315.136719 256.6875 314.925781 255.996094 314.648438 255.328125 C 314.367188 254.65625 314.027344 254.019531 313.625 253.417969 C 313.222656 252.816406 312.765625 252.257812 312.25 251.746094 C 311.738281 251.230469 311.179688 250.773438 310.578125 250.371094 C 309.972656 249.96875 309.339844 249.625 308.667969 249.347656 C 307.996094 249.070312 307.308594 248.859375 306.597656 248.71875 C 305.882812 248.578125 305.167969 248.503906 304.441406 248.503906 Z M 304.441406 263.238281 C 303.953125 263.238281 303.484375 263.144531 303.03125 262.957031 C 302.582031 262.769531 302.183594 262.503906 301.835938 262.160156 C 301.492188 261.8125 301.226562 261.414062 301.039062 260.964844 C 300.851562 260.511719 300.757812 260.042969 300.757812 259.554688 C 300.757812 259.066406 300.851562 258.597656 301.039062 258.144531 C 301.226562 257.695312 301.492188 257.296875 301.835938 256.949219 C 302.183594 256.605469 302.582031 256.339844 303.03125 256.152344 C 303.484375 255.964844 303.953125 255.871094 304.441406 255.871094 C 304.929688 255.871094 305.398438 255.964844 305.851562 256.152344 C 306.300781 256.339844 306.699219 256.605469 307.046875 256.949219 C 307.390625 257.296875 307.65625 257.695312 307.84375 258.144531 C 308.03125 258.597656 308.125 259.066406 308.125 259.554688 C 308.125 260.042969 308.03125 260.511719 307.84375 260.964844 C 307.65625 261.414062 307.390625 261.8125 307.042969 262.160156 C 306.699219 262.503906 306.300781 262.769531 305.851562 262.957031 C 305.398438 263.144531 304.929688 263.238281 304.441406 263.238281 Z M 304.441406 263.238281 " fill-opacity="1" fill-rule="nonzero"/><path fill="#1e81ce" d="M 265.152344 248.503906 C 264.425781 248.503906 263.707031 248.574219 262.996094 248.71875 C 262.285156 248.859375 261.59375 249.066406 260.921875 249.347656 C 260.253906 249.625 259.617188 249.964844 259.011719 250.367188 C 258.410156 250.769531 257.851562 251.226562 257.339844 251.742188 C 256.824219 252.253906 256.367188 252.8125 255.964844 253.414062 C 255.5625 254.019531 255.21875 254.65625 254.941406 255.324219 C 254.664062 255.996094 254.457031 256.6875 254.3125 257.398438 C 254.171875 258.109375 254.101562 258.828125 254.101562 259.554688 C 254.101562 260.28125 254.171875 261 254.3125 261.710938 C 254.457031 262.421875 254.664062 263.113281 254.941406 263.785156 C 255.21875 264.453125 255.5625 265.089844 255.964844 265.695312 C 256.367188 266.296875 256.824219 266.855469 257.339844 267.367188 C 257.851562 267.882812 258.410156 268.339844 259.011719 268.742188 C 259.617188 269.144531 260.253906 269.484375 260.921875 269.765625 C 261.59375 270.042969 262.285156 270.25 262.996094 270.390625 C 263.707031 270.535156 264.425781 270.605469 265.152344 270.605469 C 265.878906 270.605469 266.597656 270.535156 267.308594 270.390625 C 268.019531 270.25 268.710938 270.042969 269.378906 269.765625 C 270.050781 269.484375 270.6875 269.144531 271.289062 268.742188 C 271.894531 268.339844 272.453125 267.882812 272.964844 267.367188 C 273.476562 266.855469 273.9375 266.296875 274.339844 265.695312 C 274.742188 265.089844 275.082031 264.453125 275.359375 263.785156 C 275.636719 263.113281 275.847656 262.421875 275.988281 261.710938 C 276.132812 261 276.203125 260.28125 276.203125 259.554688 C 276.199219 258.828125 276.128906 258.109375 275.988281 257.398438 C 275.84375 256.6875 275.636719 255.996094 275.359375 255.328125 C 275.078125 254.65625 274.738281 254.019531 274.335938 253.417969 C 273.933594 252.816406 273.476562 252.257812 272.960938 251.746094 C 272.449219 251.230469 271.890625 250.773438 271.289062 250.371094 C 270.683594 249.96875 270.046875 249.625 269.378906 249.347656 C 268.707031 249.070312 268.019531 248.859375 267.304688 248.71875 C 266.59375 248.578125 265.875 248.503906 265.152344 248.503906 Z M 265.152344 263.238281 C 264.664062 263.238281 264.191406 263.144531 263.742188 262.957031 C 263.289062 262.769531 262.890625 262.503906 262.546875 262.160156 C 262.203125 261.8125 261.933594 261.414062 261.75 260.964844 C 261.5625 260.511719 261.46875 260.042969 261.46875 259.554688 C 261.46875 259.066406 261.5625 258.597656 261.75 258.144531 C 261.933594 257.695312 262.203125 257.296875 262.546875 256.949219 C 262.890625 256.605469 263.289062 256.339844 263.742188 256.152344 C 264.191406 255.964844 264.664062 255.871094 265.152344 255.871094 C 265.640625 255.871094 266.109375 255.964844 266.5625 256.152344 C 267.011719 256.339844 267.410156 256.605469 267.757812 256.949219 C 268.101562 257.296875 268.367188 257.695312 268.554688 258.144531 C 268.742188 258.597656 268.835938 259.066406 268.835938 259.554688 C 268.835938 260.042969 268.742188 260.511719 268.554688 260.964844 C 268.367188 261.414062 268.101562 261.8125 267.753906 262.15625 C 267.410156 262.503906 267.011719 262.769531 266.5625 262.957031 C 266.109375 263.144531 265.640625 263.238281 265.152344 263.238281 Z M 265.152344 263.238281 " fill-opacity="1" fill-rule="nonzero"/><path fill="#1e81ce" d="M 461.597656 248.503906 L 422.308594 248.503906 C 421.582031 248.503906 420.867188 248.574219 420.152344 248.71875 C 419.441406 248.859375 418.75 249.066406 418.082031 249.347656 C 417.410156 249.625 416.773438 249.964844 416.171875 250.367188 C 415.566406 250.769531 415.007812 251.226562 414.496094 251.742188 C 413.984375 252.253906 413.523438 252.8125 413.121094 253.414062 C 412.71875 254.019531 412.378906 254.65625 412.101562 255.324219 C 411.824219 255.996094 411.613281 256.6875 411.472656 257.398438 C 411.332031 258.109375 411.257812 258.828125 411.257812 259.554688 C 411.257812 260.28125 411.332031 261 411.472656 261.710938 C 411.613281 262.421875 411.824219 263.113281 412.101562 263.785156 C 412.378906 264.453125 412.71875 265.089844 413.121094 265.695312 C 413.523438 266.296875 413.984375 266.855469 414.496094 267.367188 C 415.007812 267.882812 415.566406 268.339844 416.171875 268.742188 C 416.773438 269.144531 417.410156 269.484375 418.082031 269.765625 C 418.75 270.042969 419.441406 270.25 420.152344 270.390625 C 420.867188 270.535156 421.582031 270.605469 422.308594 270.605469 L 461.597656 270.605469 C 462.324219 270.605469 463.042969 270.535156 463.753906 270.390625 C 464.464844 270.25 465.15625 270.042969 465.828125 269.765625 C 466.496094 269.484375 467.136719 269.144531 467.738281 268.742188 C 468.339844 268.339844 468.898438 267.882812 469.414062 267.367188 C 469.925781 266.855469 470.382812 266.296875 470.785156 265.695312 C 471.191406 265.089844 471.53125 264.453125 471.808594 263.785156 C 472.085938 263.113281 472.296875 262.421875 472.4375 261.710938 C 472.578125 261 472.648438 260.28125 472.648438 259.554688 C 472.648438 258.828125 472.578125 258.109375 472.4375 257.398438 C 472.296875 256.6875 472.085938 255.996094 471.808594 255.324219 C 471.53125 254.65625 471.191406 254.019531 470.785156 253.414062 C 470.382812 252.8125 469.925781 252.253906 469.414062 251.742188 C 468.898438 251.226562 468.339844 250.769531 467.738281 250.367188 C 467.136719 249.964844 466.496094 249.625 465.828125 249.347656 C 465.15625 249.066406 464.464844 248.859375 463.753906 248.71875 C 463.042969 248.574219 462.324219 248.503906 461.597656 248.503906 Z M 461.597656 263.238281 L 422.308594 263.238281 C 421.820312 263.238281 421.351562 263.144531 420.898438 262.957031 C 420.449219 262.769531 420.050781 262.503906 419.703125 262.160156 C 419.359375 261.8125 419.09375 261.414062 418.90625 260.964844 C 418.71875 260.511719 418.625 260.042969 418.625 259.554688 C 418.625 259.066406 418.71875 258.597656 418.90625 258.144531 C 419.09375 257.695312 419.359375 257.296875 419.703125 256.949219 C 420.050781 256.605469 420.449219 256.339844 420.898438 256.152344 C 421.351562 255.964844 421.820312 255.871094 422.308594 255.871094 L 461.597656 255.871094 C 462.085938 255.871094 462.558594 255.964844 463.007812 256.152344 C 463.460938 256.339844 463.859375 256.605469 464.203125 256.949219 C 464.550781 257.296875 464.816406 257.695312 465.003906 258.144531 C 465.1875 258.597656 465.28125 259.066406 465.28125 259.554688 C 465.28125 260.042969 465.1875 260.511719 465.003906 260.964844 C 464.816406 261.414062 464.550781 261.8125 464.203125 262.160156 C 463.859375 262.503906 463.460938 262.769531 463.007812 262.957031 C 462.558594 263.144531 462.085938 263.238281 461.597656 263.238281 Z M 461.597656 263.238281 " fill-opacity="1" fill-rule="nonzero"/><path fill="#1e81ce" d="M 369.515625 439.734375 C 368.566406 439.734375 367.628906 439.828125 366.699219 440.011719 C 365.769531 440.195312 364.867188 440.46875 363.992188 440.832031 C 363.117188 441.195312 362.285156 441.640625 361.5 442.164062 C 360.710938 442.691406 359.984375 443.289062 359.3125 443.960938 C 358.644531 444.628906 358.046875 445.359375 357.519531 446.144531 C 356.992188 446.933594 356.546875 447.765625 356.1875 448.640625 C 355.824219 449.515625 355.550781 450.417969 355.363281 451.347656 C 355.179688 452.273438 355.085938 453.214844 355.085938 454.160156 C 355.085938 455.109375 355.179688 456.046875 355.363281 456.976562 C 355.550781 457.902344 355.824219 458.804688 356.1875 459.679688 C 356.546875 460.554688 356.992188 461.386719 357.519531 462.175781 C 358.046875 462.964844 358.644531 463.691406 359.3125 464.363281 C 359.984375 465.03125 360.710938 465.628906 361.5 466.15625 C 362.285156 466.683594 363.117188 467.125 363.992188 467.488281 C 364.867188 467.851562 365.769531 468.125 366.699219 468.308594 C 367.628906 468.496094 368.566406 468.585938 369.515625 468.585938 L 424.765625 468.585938 C 425.710938 468.585938 426.652344 468.496094 427.578125 468.308594 C 428.507812 468.125 429.410156 467.851562 430.285156 467.488281 C 431.160156 467.125 431.992188 466.683594 432.78125 466.15625 C 433.566406 465.628906 434.296875 465.03125 434.964844 464.363281 C 435.636719 463.691406 436.234375 462.964844 436.761719 462.175781 C 437.285156 461.386719 437.730469 460.554688 438.09375 459.679688 C 438.457031 458.804688 438.730469 457.902344 438.914062 456.976562 C 439.097656 456.046875 439.191406 455.109375 439.191406 454.160156 C 439.191406 453.214844 439.097656 452.273438 438.914062 451.347656 C 438.730469 450.417969 438.457031 449.515625 438.09375 448.640625 C 437.730469 447.765625 437.285156 446.933594 436.761719 446.144531 C 436.234375 445.359375 435.636719 444.628906 434.964844 443.960938 C 434.296875 443.289062 433.566406 442.691406 432.78125 442.164062 C 431.992188 441.640625 431.160156 441.195312 430.285156 440.832031 C 429.410156 440.46875 428.507812 440.195312 427.578125 440.011719 C 426.652344 439.828125 425.710938 439.734375 424.765625 439.734375 L 411.566406 439.734375 L 411.566406 376.503906 L 424.765625 376.503906 C 425.710938 376.503906 426.652344 376.410156 427.578125 376.226562 C 428.507812 376.039062 429.410156 375.765625 430.285156 375.402344 C 431.160156 375.042969 431.992188 374.597656 432.78125 374.070312 C 433.566406 373.542969 434.296875 372.945312 434.964844 372.277344 C 435.636719 371.605469 436.234375 370.878906 436.761719 370.089844 C 437.285156 369.304688 437.730469 368.472656 438.09375 367.597656 C 438.457031 366.722656 438.730469 365.820312 438.914062 364.890625 C 439.097656 363.960938 439.191406 363.023438 439.191406 362.074219 C 439.191406 361.128906 439.097656 360.191406 438.914062 359.261719 C 438.730469 358.332031 438.457031 357.429688 438.09375 356.554688 C 437.730469 355.679688 437.285156 354.847656 436.761719 354.0625 C 436.234375 353.273438 435.636719 352.542969 434.964844 351.875 C 434.296875 351.203125 433.566406 350.605469 432.78125 350.082031 C 431.992188 349.554688 431.160156 349.109375 430.285156 348.746094 C 429.410156 348.382812 428.507812 348.109375 427.578125 347.925781 C 426.652344 347.742188 425.710938 347.648438 424.765625 347.648438 L 369.515625 347.648438 C 368.566406 347.648438 367.628906 347.742188 366.699219 347.925781 C 365.769531 348.109375 364.867188 348.382812 363.992188 348.746094 C 363.117188 349.109375 362.285156 349.554688 361.5 350.082031 C 360.710938 350.605469 359.984375 351.203125 359.3125 351.875 C 358.644531 352.542969 358.046875 353.273438 357.519531 354.0625 C 356.992188 354.847656 356.546875 355.679688 356.1875 356.554688 C 355.824219 357.429688 355.550781 358.332031 355.363281 359.261719 C 355.179688 360.191406 355.085938 361.128906 355.085938 362.074219 C 355.085938 363.023438 355.179688 363.960938 355.363281 364.890625 C 355.550781 365.820312 355.824219 366.722656 356.1875 367.597656 C 356.546875 368.472656 356.992188 369.304688 357.519531 370.089844 C 358.046875 370.878906 358.644531 371.605469 359.3125 372.277344 C 359.984375 372.945312 360.710938 373.542969 361.5 374.070312 C 362.285156 374.597656 363.117188 375.042969 363.992188 375.402344 C 364.867188 375.765625 365.769531 376.039062 366.699219 376.226562 C 367.628906 376.410156 368.566406 376.503906 369.515625 376.503906 L 382.714844 376.503906 L 382.714844 439.734375 Z M 386.394531 369.136719 L 369.515625 369.136719 C 369.050781 369.136719 368.589844 369.089844 368.136719 369 C 367.683594 368.910156 367.242188 368.777344 366.8125 368.597656 C 366.382812 368.421875 365.976562 368.203125 365.59375 367.945312 C 365.207031 367.6875 364.851562 367.394531 364.523438 367.066406 C 364.195312 366.738281 363.902344 366.382812 363.644531 365.996094 C 363.386719 365.613281 363.167969 365.207031 362.992188 364.777344 C 362.8125 364.347656 362.679688 363.90625 362.589844 363.453125 C 362.5 363 362.453125 362.539062 362.453125 362.074219 C 362.453125 361.613281 362.5 361.152344 362.589844 360.699219 C 362.679688 360.242188 362.8125 359.800781 362.992188 359.375 C 363.167969 358.945312 363.386719 358.539062 363.644531 358.152344 C 363.902344 357.769531 364.195312 357.410156 364.523438 357.082031 C 364.851562 356.757812 365.207031 356.464844 365.59375 356.207031 C 365.976562 355.949219 366.382812 355.730469 366.8125 355.554688 C 367.242188 355.375 367.683594 355.242188 368.136719 355.152344 C 368.589844 355.0625 369.050781 355.015625 369.515625 355.015625 L 424.765625 355.015625 C 425.230469 355.015625 425.6875 355.0625 426.140625 355.152344 C 426.597656 355.242188 427.039062 355.375 427.464844 355.554688 C 427.894531 355.730469 428.300781 355.949219 428.6875 356.207031 C 429.074219 356.464844 429.429688 356.757812 429.757812 357.082031 C 430.085938 357.410156 430.378906 357.769531 430.636719 358.152344 C 430.894531 358.539062 431.109375 358.945312 431.289062 359.375 C 431.464844 359.800781 431.597656 360.242188 431.6875 360.699219 C 431.78125 361.152344 431.824219 361.613281 431.824219 362.074219 C 431.824219 362.539062 431.78125 363 431.6875 363.453125 C 431.597656 363.90625 431.464844 364.347656 431.289062 364.777344 C 431.109375 365.207031 430.894531 365.613281 430.636719 365.996094 C 430.378906 366.382812 430.085938 366.738281 429.757812 367.066406 C 429.429688 367.394531 429.074219 367.6875 428.6875 367.945312 C 428.300781 368.203125 427.894531 368.421875 427.464844 368.597656 C 427.039062 368.777344 426.597656 368.910156 426.140625 369 C 425.6875 369.089844 425.230469 369.136719 424.765625 369.136719 L 407.882812 369.136719 C 407.394531 369.136719 406.925781 369.230469 406.472656 369.414062 C 406.023438 369.601562 405.625 369.867188 405.277344 370.214844 C 404.933594 370.558594 404.667969 370.957031 404.480469 371.410156 C 404.292969 371.859375 404.199219 372.332031 404.199219 372.820312 L 404.199219 443.417969 C 404.199219 443.90625 404.292969 444.375 404.480469 444.828125 C 404.667969 445.277344 404.933594 445.675781 405.277344 446.023438 C 405.625 446.367188 406.023438 446.632812 406.472656 446.820312 C 406.925781 447.007812 407.394531 447.101562 407.882812 447.101562 L 424.765625 447.101562 C 425.230469 447.101562 425.6875 447.144531 426.140625 447.234375 C 426.597656 447.328125 427.039062 447.460938 427.464844 447.636719 C 427.894531 447.816406 428.300781 448.03125 428.6875 448.289062 C 429.074219 448.546875 429.429688 448.839844 429.757812 449.167969 C 430.085938 449.496094 430.378906 449.851562 430.636719 450.238281 C 430.894531 450.625 431.109375 451.03125 431.289062 451.457031 C 431.464844 451.886719 431.597656 452.328125 431.6875 452.78125 C 431.78125 453.238281 431.824219 453.695312 431.824219 454.160156 C 431.824219 454.625 431.78125 455.082031 431.6875 455.539062 C 431.597656 455.992188 431.464844 456.433594 431.289062 456.863281 C 431.109375 457.289062 430.894531 457.695312 430.636719 458.082031 C 430.378906 458.46875 430.085938 458.824219 429.757812 459.152344 C 429.429688 459.480469 429.074219 459.773438 428.6875 460.03125 C 428.300781 460.289062 427.894531 460.503906 427.464844 460.683594 C 427.039062 460.859375 426.597656 460.992188 426.140625 461.085938 C 425.6875 461.175781 425.230469 461.21875 424.765625 461.21875 L 369.515625 461.21875 C 369.050781 461.21875 368.589844 461.175781 368.136719 461.085938 C 367.683594 460.992188 367.242188 460.859375 366.8125 460.683594 C 366.382812 460.503906 365.976562 460.289062 365.59375 460.03125 C 365.207031 459.773438 364.851562 459.480469 364.523438 459.152344 C 364.195312 458.824219 363.902344 458.46875 363.644531 458.082031 C 363.386719 457.695312 363.167969 457.289062 362.992188 456.863281 C 362.8125 456.433594 362.679688 455.992188 362.589844 455.539062 C 362.5 455.082031 362.453125 454.625 362.453125 454.160156 C 362.453125 453.695312 362.5 453.238281 362.589844 452.78125 C 362.679688 452.328125 362.8125 451.886719 362.992188 451.457031 C 363.167969 451.03125 363.386719 450.625 363.644531 450.238281 C 363.902344 449.851562 364.195312 449.496094 364.523438 449.167969 C 364.851562 448.839844 365.207031 448.546875 365.59375 448.289062 C 365.976562 448.03125 366.382812 447.816406 366.8125 447.636719 C 367.242188 447.460938 367.683594 447.328125 368.136719 447.234375 C 368.589844 447.144531 369.050781 447.101562 369.515625 447.101562 L 386.394531 447.101562 C 386.886719 447.101562 387.355469 447.007812 387.804688 446.820312 C 388.257812 446.632812 388.65625 446.367188 389 446.023438 C 389.347656 445.675781 389.613281 445.277344 389.800781 444.828125 C 389.988281 444.375 390.078125 443.90625 390.078125 443.417969 L 390.078125 372.820312 C 390.078125 372.332031 389.988281 371.859375 389.800781 371.410156 C 389.613281 370.957031 389.347656 370.558594 389 370.214844 C 388.65625 369.867188 388.257812 369.601562 387.804688 369.414062 C 387.355469 369.230469 386.886719 369.136719 386.394531 369.136719 Z M 386.394531 369.136719 " fill-opacity="1" fill-rule="nonzero"/><path fill="#1e81ce" d="M 292.777344 468.585938 C 294.152344 468.585938 295.527344 468.515625 296.898438 468.378906 C 298.265625 468.242188 299.628906 468.039062 300.976562 467.769531 C 302.328125 467.5 303.660156 467.167969 304.980469 466.765625 C 306.296875 466.363281 307.589844 465.902344 308.863281 465.375 C 310.132812 464.84375 311.375 464.257812 312.589844 463.609375 C 313.804688 462.957031 314.984375 462.25 316.128906 461.484375 C 317.273438 460.71875 318.378906 459.902344 319.441406 459.027344 C 320.503906 458.152344 321.523438 457.230469 322.5 456.257812 C 323.472656 455.28125 324.394531 454.265625 325.269531 453.199219 C 326.144531 452.136719 326.960938 451.03125 327.726562 449.886719 C 328.492188 448.742188 329.199219 447.5625 329.847656 446.347656 C 330.5 445.132812 331.085938 443.890625 331.613281 442.621094 C 332.144531 441.347656 332.605469 440.054688 333.007812 438.738281 C 333.40625 437.417969 333.742188 436.085938 334.011719 434.734375 C 334.28125 433.386719 334.484375 432.023438 334.621094 430.65625 C 334.757812 429.285156 334.828125 427.910156 334.828125 426.535156 L 334.828125 362.074219 C 334.828125 361.128906 334.738281 360.191406 334.550781 359.261719 C 334.367188 358.332031 334.09375 357.429688 333.730469 356.554688 C 333.367188 355.679688 332.925781 354.847656 332.398438 354.0625 C 331.871094 353.273438 331.273438 352.542969 330.605469 351.875 C 329.933594 351.203125 329.203125 350.605469 328.417969 350.082031 C 327.628906 349.554688 326.796875 349.109375 325.921875 348.746094 C 325.046875 348.382812 324.144531 348.109375 323.21875 347.925781 C 322.289062 347.742188 321.351562 347.648438 320.402344 347.648438 C 319.457031 347.648438 318.515625 347.742188 317.589844 347.925781 C 316.660156 348.109375 315.757812 348.382812 314.882812 348.746094 C 314.007812 349.109375 313.175781 349.554688 312.386719 350.082031 C 311.601562 350.605469 310.871094 351.203125 310.203125 351.875 C 309.53125 352.542969 308.933594 353.273438 308.40625 354.0625 C 307.878906 354.847656 307.4375 355.679688 307.074219 356.554688 C 306.710938 357.429688 306.4375 358.332031 306.253906 359.261719 C 306.066406 360.191406 305.976562 361.128906 305.976562 362.074219 L 305.976562 426.535156 C 305.976562 427.402344 305.890625 428.261719 305.722656 429.109375 C 305.554688 429.960938 305.304688 430.785156 304.972656 431.585938 C 304.640625 432.386719 304.234375 433.148438 303.75 433.867188 C 303.269531 434.589844 302.722656 435.253906 302.109375 435.867188 C 301.496094 436.480469 300.832031 437.027344 300.109375 437.507812 C 299.390625 437.992188 298.628906 438.398438 297.828125 438.730469 C 297.027344 439.0625 296.203125 439.3125 295.351562 439.480469 C 294.503906 439.648438 293.644531 439.734375 292.777344 439.734375 C 291.910156 439.734375 291.050781 439.648438 290.203125 439.480469 C 289.351562 439.3125 288.527344 439.0625 287.726562 438.730469 C 286.925781 438.398438 286.164062 437.992188 285.445312 437.507812 C 284.722656 437.027344 284.058594 436.480469 283.445312 435.867188 C 282.832031 435.253906 282.285156 434.589844 281.800781 433.867188 C 281.320312 433.148438 280.914062 432.386719 280.582031 431.585938 C 280.25 430.785156 280 429.960938 279.832031 429.109375 C 279.664062 428.261719 279.578125 427.402344 279.578125 426.535156 L 279.578125 362.074219 C 279.578125 361.128906 279.484375 360.191406 279.300781 359.261719 C 279.117188 358.332031 278.84375 357.429688 278.480469 356.554688 C 278.117188 355.679688 277.671875 354.847656 277.148438 354.0625 C 276.621094 353.273438 276.023438 352.542969 275.351562 351.875 C 274.683594 351.203125 273.953125 350.605469 273.167969 350.082031 C 272.378906 349.554688 271.546875 349.109375 270.671875 348.746094 C 269.796875 348.382812 268.894531 348.109375 267.964844 347.925781 C 267.035156 347.742188 266.097656 347.648438 265.152344 347.648438 C 264.203125 347.648438 263.265625 347.742188 262.335938 347.925781 C 261.40625 348.109375 260.507812 348.382812 259.628906 348.746094 C 258.753906 349.109375 257.925781 349.554688 257.136719 350.082031 C 256.347656 350.605469 255.621094 351.203125 254.949219 351.875 C 254.28125 352.542969 253.683594 353.273438 253.15625 354.0625 C 252.628906 354.847656 252.1875 355.679688 251.824219 356.554688 C 251.460938 357.429688 251.1875 358.332031 251.003906 359.261719 C 250.816406 360.191406 250.726562 361.128906 250.726562 362.074219 L 250.726562 426.535156 C 250.726562 427.910156 250.796875 429.285156 250.933594 430.65625 C 251.066406 432.023438 251.269531 433.386719 251.539062 434.734375 C 251.8125 436.085938 252.144531 437.417969 252.546875 438.738281 C 252.945312 440.054688 253.410156 441.347656 253.9375 442.621094 C 254.464844 443.890625 255.054688 445.132812 255.703125 446.347656 C 256.355469 447.5625 257.0625 448.742188 257.828125 449.886719 C 258.59375 451.03125 259.410156 452.136719 260.285156 453.199219 C 261.160156 454.265625 262.082031 455.28125 263.054688 456.257812 C 264.03125 457.230469 265.046875 458.152344 266.113281 459.027344 C 267.175781 459.902344 268.28125 460.71875 269.425781 461.484375 C 270.570312 462.25 271.75 462.957031 272.964844 463.609375 C 274.175781 464.257812 275.421875 464.84375 276.691406 465.375 C 277.964844 465.902344 279.257812 466.363281 280.574219 466.765625 C 281.890625 467.167969 283.226562 467.5 284.578125 467.769531 C 285.925781 468.039062 287.285156 468.242188 288.65625 468.378906 C 290.027344 468.515625 291.398438 468.585938 292.777344 468.585938 Z M 258.089844 362.074219 C 258.089844 361.613281 258.136719 361.152344 258.226562 360.699219 C 258.316406 360.242188 258.453125 359.800781 258.628906 359.375 C 258.804688 358.945312 259.023438 358.539062 259.28125 358.152344 C 259.539062 357.769531 259.832031 357.410156 260.160156 357.082031 C 260.488281 356.757812 260.84375 356.464844 261.230469 356.207031 C 261.613281 355.949219 262.023438 355.730469 262.449219 355.554688 C 262.878906 355.375 263.320312 355.242188 263.773438 355.152344 C 264.230469 355.0625 264.6875 355.015625 265.152344 355.015625 C 265.613281 355.015625 266.074219 355.0625 266.527344 355.152344 C 266.984375 355.242188 267.425781 355.375 267.851562 355.554688 C 268.28125 355.730469 268.6875 355.949219 269.074219 356.207031 C 269.460938 356.464844 269.816406 356.757812 270.144531 357.082031 C 270.472656 357.410156 270.765625 357.769531 271.023438 358.152344 C 271.277344 358.539062 271.496094 358.945312 271.675781 359.375 C 271.851562 359.800781 271.984375 360.242188 272.074219 360.699219 C 272.167969 361.152344 272.210938 361.613281 272.210938 362.074219 L 272.210938 426.535156 C 272.210938 427.207031 272.246094 427.878906 272.308594 428.550781 C 272.375 429.222656 272.476562 429.886719 272.605469 430.546875 C 272.738281 431.207031 272.902344 431.859375 273.097656 432.503906 C 273.292969 433.148438 273.519531 433.78125 273.777344 434.40625 C 274.035156 435.027344 274.320312 435.636719 274.640625 436.230469 C 274.957031 436.824219 275.304688 437.402344 275.675781 437.960938 C 276.050781 438.519531 276.453125 439.0625 276.878906 439.582031 C 277.308594 440.101562 277.757812 440.601562 278.234375 441.078125 C 278.710938 441.554688 279.210938 442.003906 279.730469 442.433594 C 280.25 442.859375 280.792969 443.261719 281.351562 443.632812 C 281.910156 444.007812 282.488281 444.355469 283.082031 444.671875 C 283.675781 444.988281 284.285156 445.277344 284.90625 445.535156 C 285.527344 445.792969 286.164062 446.019531 286.808594 446.214844 C 287.453125 446.410156 288.105469 446.574219 288.765625 446.707031 C 289.425781 446.835938 290.089844 446.933594 290.761719 447 C 291.429688 447.066406 292.101562 447.101562 292.777344 447.101562 C 293.449219 447.101562 294.121094 447.066406 294.792969 447 C 295.464844 446.933594 296.128906 446.835938 296.789062 446.707031 C 297.449219 446.574219 298.101562 446.410156 298.746094 446.214844 C 299.390625 446.019531 300.023438 445.792969 300.648438 445.535156 C 301.269531 445.277344 301.878906 444.988281 302.472656 444.671875 C 303.066406 444.355469 303.644531 444.007812 304.203125 443.632812 C 304.761719 443.261719 305.304688 442.859375 305.824219 442.433594 C 306.34375 442.003906 306.84375 441.554688 307.320312 441.078125 C 307.796875 440.601562 308.246094 440.101562 308.675781 439.582031 C 309.101562 439.0625 309.503906 438.519531 309.875 437.960938 C 310.25 437.402344 310.597656 436.824219 310.914062 436.230469 C 311.230469 435.636719 311.519531 435.027344 311.777344 434.40625 C 312.035156 433.78125 312.261719 433.148438 312.457031 432.503906 C 312.652344 431.859375 312.816406 431.207031 312.949219 430.546875 C 313.078125 429.886719 313.175781 429.222656 313.242188 428.550781 C 313.308594 427.878906 313.34375 427.207031 313.34375 426.535156 L 313.34375 362.074219 C 313.34375 361.613281 313.386719 361.152344 313.476562 360.699219 C 313.570312 360.242188 313.703125 359.800781 313.878906 359.375 C 314.058594 358.945312 314.273438 358.539062 314.53125 358.152344 C 314.789062 357.769531 315.082031 357.410156 315.410156 357.082031 C 315.738281 356.757812 316.09375 356.464844 316.480469 356.207031 C 316.867188 355.949219 317.273438 355.730469 317.699219 355.554688 C 318.128906 355.375 318.570312 355.242188 319.023438 355.152344 C 319.480469 355.0625 319.9375 355.015625 320.402344 355.015625 C 320.867188 355.015625 321.324219 355.0625 321.78125 355.152344 C 322.234375 355.242188 322.675781 355.375 323.105469 355.554688 C 323.53125 355.730469 323.9375 355.949219 324.324219 356.207031 C 324.710938 356.464844 325.066406 356.757812 325.394531 357.082031 C 325.722656 357.410156 326.015625 357.769531 326.273438 358.152344 C 326.53125 358.539062 326.746094 358.945312 326.925781 359.375 C 327.101562 359.800781 327.234375 360.242188 327.328125 360.699219 C 327.417969 361.152344 327.460938 361.613281 327.460938 362.074219 L 327.460938 426.535156 C 327.460938 427.671875 327.40625 428.804688 327.296875 429.933594 C 327.183594 431.066406 327.015625 432.1875 326.796875 433.300781 C 326.574219 434.414062 326.296875 435.515625 325.96875 436.605469 C 325.640625 437.691406 325.257812 438.757812 324.820312 439.808594 C 324.386719 440.859375 323.902344 441.882812 323.367188 442.886719 C 322.832031 443.886719 322.246094 444.859375 321.617188 445.804688 C 320.984375 446.75 320.308594 447.660156 319.589844 448.539062 C 318.867188 449.417969 318.105469 450.257812 317.304688 451.0625 C 316.5 451.863281 315.660156 452.625 314.78125 453.347656 C 313.902344 454.066406 312.992188 454.742188 312.046875 455.375 C 311.101562 456.003906 310.128906 456.589844 309.128906 457.125 C 308.125 457.660156 307.101562 458.144531 306.050781 458.578125 C 305 459.015625 303.933594 459.398438 302.84375 459.726562 C 301.757812 460.054688 300.65625 460.332031 299.542969 460.554688 C 298.429688 460.773438 297.308594 460.941406 296.175781 461.054688 C 295.046875 461.164062 293.914062 461.21875 292.777344 461.21875 C 291.640625 461.21875 290.507812 461.164062 289.378906 461.054688 C 288.246094 460.941406 287.125 460.773438 286.011719 460.554688 C 284.894531 460.332031 283.796875 460.054688 282.707031 459.726562 C 281.621094 459.398438 280.554688 459.015625 279.503906 458.578125 C 278.453125 458.144531 277.429688 457.660156 276.425781 457.125 C 275.425781 456.589844 274.453125 456.003906 273.507812 455.375 C 272.5625 454.742188 271.652344 454.066406 270.773438 453.347656 C 269.894531 452.625 269.054688 451.863281 268.25 451.0625 C 267.449219 450.257812 266.6875 449.417969 265.964844 448.539062 C 265.246094 447.660156 264.570312 446.75 263.9375 445.804688 C 263.304688 444.859375 262.722656 443.886719 262.1875 442.886719 C 261.652344 441.882812 261.167969 440.859375 260.730469 439.808594 C 260.296875 438.757812 259.914062 437.691406 259.585938 436.605469 C 259.253906 435.515625 258.980469 434.414062 258.757812 433.300781 C 258.535156 432.1875 258.371094 431.066406 258.257812 429.933594 C 258.148438 428.804688 258.089844 427.671875 258.089844 426.535156 Z M 258.089844 362.074219 " fill-opacity="1" fill-rule="nonzero"/></svg>