<svg xmlns="http://www.w3.org/2000/svg" xmlns:xlink="http://www.w3.org/1999/xlink" width="940" zoomAndPan="magnify" viewBox="0 0 705 591.000005" height="788" preserveAspectRatio="xMidYMid meet" version="1.0"><defs><filter x="0%" y="0%" width="100%" height="100%" id="5dda53ebf3"><feColorMatrix values="0 0 0 0 1 0 0 0 0 1 0 0 0 0 1 0 0 0 1 0" color-interpolation-filters="sRGB"/></filter><mask id="2cce336f85"><g filter="url(#5dda53ebf3)"><rect x="-70.5" width="846" fill="#000000" y="-59.100001" height="709.200006" fill-opacity="0.1"/></g></mask><clipPath id="8b8fcfe740"><path d="M 0.046875 0.75 L 178 0.75 L 178 181 L 0.046875 181 Z M 0.046875 0.75 " clip-rule="nonzero"/></clipPath><clipPath id="d768644ca1"><rect x="0" width="179" y="0" height="182"/></clipPath><mask id="48b4801a91"><g filter="url(#5dda53ebf3)"><rect x="-70.5" width="846" fill="#000000" y="-59.100001" height="709.200006" fill-opacity="0.11"/></g></mask><clipPath id="b45f943d5e"><path d="M 1 1 L 330 1 L 330 334.453125 L 1 334.453125 Z M 1 1 " clip-rule="nonzero"/></clipPath><clipPath id="74954c6ef5"><rect x="0" width="331" y="0" height="335"/></clipPath><clipPath id="7b0a23a973"><path d="M 52.371094 163.246094 L 559 163.246094 L 559 538.363281 L 52.371094 538.363281 Z M 52.371094 163.246094 " clip-rule="nonzero"/></clipPath><clipPath id="6244115980"><path d="M 456 257 L 652.855469 257 L 652.855469 454 L 456 454 Z M 456 257 " clip-rule="nonzero"/></clipPath></defs><g mask="url(#2cce336f85)"><g transform="matrix(1, 0, 0, 1, 65, 28)"><g clip-path="url(#d768644ca1)"><g clip-path="url(#8b8fcfe740)"><path fill="#464f5b" d="M 134.578125 19.707031 C 151.160156 32.03125 164.710938 48.382812 171.992188 67.425781 C 179.273438 86.582031 180.394531 108.539062 170.535156 123.433594 C 160.792969 138.332031 140.292969 146.0625 123.152344 155.136719 C 106.015625 164.097656 92.238281 174.179688 75.210938 178.660156 C 58.296875 183.027344 38.132812 181.683594 25.699219 171.15625 C 13.265625 160.738281 8.449219 141.023438 4.753906 122.652344 C 1.054688 104.394531 -1.632812 87.253906 2.625 71.90625 C 6.882812 56.5625 18.082031 42.894531 31.859375 29.679688 C 45.640625 16.460938 61.992188 3.578125 80.140625 1.335938 C 98.175781 -0.902344 117.890625 7.386719 134.578125 19.707031 Z M 134.578125 19.707031 " fill-opacity="1" fill-rule="nonzero"/></g></g></g></g><g mask="url(#48b4801a91)"><g transform="matrix(1, 0, 0, 1, 120, 225)"><g clip-path="url(#74954c6ef5)"><g clip-path="url(#b45f943d5e)"><path fill="#464f5b" d="M 249.765625 35.925781 C 280.417969 58.707031 305.480469 88.945312 318.941406 124.15625 C 332.40625 159.574219 334.476562 200.167969 316.25 227.714844 C 298.230469 255.261719 260.328125 269.554688 228.636719 286.332031 C 196.949219 302.898438 171.472656 321.539062 139.992188 329.824219 C 108.714844 337.902344 71.433594 335.417969 48.445312 315.949219 C 25.453125 296.6875 16.546875 260.234375 9.714844 226.265625 C 2.878906 192.507812 -2.09375 160.816406 5.777344 132.441406 C 13.648438 104.066406 34.359375 78.796875 59.835938 54.359375 C 85.3125 29.917969 115.550781 6.097656 149.105469 1.957031 C 182.449219 -2.183594 218.902344 13.140625 249.765625 35.925781 Z M 249.765625 35.925781 " fill-opacity="1" fill-rule="nonzero"/></g></g></g></g><path fill="#1e81ce" d="M 268.085938 444.609375 C 262.929688 444.609375 258.707031 448.832031 258.707031 453.988281 C 258.707031 459.148438 262.929688 463.367188 268.085938 463.367188 L 343.117188 463.367188 C 348.273438 463.367188 352.496094 459.148438 352.496094 453.988281 C 352.496094 448.832031 348.273438 444.609375 343.117188 444.609375 Z M 268.085938 444.609375 " fill-opacity="1" fill-rule="nonzero"/><path fill="#1e81ce" d="M 137.253906 451.175781 C 137.253906 451.699219 137.203125 452.21875 137.101562 452.730469 C 136.996094 453.246094 136.847656 453.742188 136.644531 454.226562 C 136.445312 454.710938 136.199219 455.167969 135.910156 455.605469 C 135.617188 456.039062 135.289062 456.441406 134.917969 456.8125 C 134.546875 457.183594 134.144531 457.511719 133.710938 457.804688 C 133.273438 458.09375 132.816406 458.339844 132.332031 458.539062 C 131.847656 458.742188 131.351562 458.890625 130.835938 458.996094 C 130.324219 459.097656 129.804688 459.148438 129.28125 459.148438 C 128.757812 459.148438 128.238281 459.097656 127.726562 458.996094 C 127.210938 458.890625 126.714844 458.742188 126.230469 458.539062 C 125.746094 458.339844 125.289062 458.09375 124.851562 457.804688 C 124.417969 457.511719 124.015625 457.183594 123.644531 456.8125 C 123.273438 456.441406 122.945312 456.039062 122.652344 455.605469 C 122.363281 455.167969 122.117188 454.710938 121.914062 454.226562 C 121.714844 453.742188 121.566406 453.246094 121.460938 452.730469 C 121.359375 452.21875 121.308594 451.699219 121.308594 451.175781 C 121.308594 450.652344 121.359375 450.132812 121.460938 449.621094 C 121.566406 449.105469 121.714844 448.609375 121.914062 448.125 C 122.117188 447.640625 122.363281 447.183594 122.652344 446.746094 C 122.945312 446.3125 123.273438 445.910156 123.644531 445.539062 C 124.015625 445.167969 124.417969 444.839844 124.851562 444.546875 C 125.289062 444.257812 125.746094 444.011719 126.230469 443.8125 C 126.714844 443.609375 127.210938 443.460938 127.726562 443.355469 C 128.238281 443.253906 128.757812 443.203125 129.28125 443.203125 C 129.804688 443.203125 130.324219 443.253906 130.835938 443.355469 C 131.351562 443.460938 131.847656 443.609375 132.332031 443.8125 C 132.816406 444.011719 133.273438 444.257812 133.710938 444.546875 C 134.144531 444.839844 134.546875 445.167969 134.917969 445.539062 C 135.289062 445.910156 135.617188 446.3125 135.910156 446.746094 C 136.199219 447.183594 136.445312 447.640625 136.644531 448.125 C 136.847656 448.609375 136.996094 449.105469 137.101562 449.621094 C 137.203125 450.132812 137.253906 450.652344 137.253906 451.175781 Z M 137.253906 451.175781 " fill-opacity="1" fill-rule="nonzero"/><path fill="#1e81ce" d="M 105.835938 451.175781 C 105.835938 451.699219 105.78125 452.21875 105.679688 452.730469 C 105.578125 453.246094 105.425781 453.742188 105.226562 454.226562 C 105.027344 454.710938 104.78125 455.167969 104.492188 455.605469 C 104.199219 456.039062 103.871094 456.441406 103.5 456.8125 C 103.128906 457.183594 102.726562 457.511719 102.292969 457.804688 C 101.855469 458.09375 101.398438 458.339844 100.914062 458.539062 C 100.429688 458.742188 99.929688 458.890625 99.417969 458.996094 C 98.902344 459.097656 98.386719 459.148438 97.863281 459.148438 C 97.339844 459.148438 96.820312 459.097656 96.308594 458.996094 C 95.792969 458.890625 95.296875 458.742188 94.8125 458.539062 C 94.328125 458.339844 93.867188 458.09375 93.433594 457.804688 C 93 457.511719 92.59375 457.183594 92.226562 456.8125 C 91.855469 456.441406 91.523438 456.039062 91.234375 455.605469 C 90.941406 455.167969 90.699219 454.710938 90.496094 454.226562 C 90.296875 453.742188 90.144531 453.246094 90.042969 452.730469 C 89.941406 452.21875 89.890625 451.699219 89.890625 451.175781 C 89.890625 450.652344 89.941406 450.132812 90.042969 449.621094 C 90.144531 449.105469 90.296875 448.609375 90.496094 448.125 C 90.699219 447.640625 90.941406 447.183594 91.234375 446.746094 C 91.523438 446.3125 91.855469 445.910156 92.226562 445.539062 C 92.59375 445.167969 93 444.839844 93.433594 444.546875 C 93.867188 444.257812 94.328125 444.011719 94.8125 443.8125 C 95.296875 443.609375 95.792969 443.460938 96.308594 443.355469 C 96.820312 443.253906 97.339844 443.203125 97.863281 443.203125 C 98.386719 443.203125 98.902344 443.253906 99.417969 443.355469 C 99.929688 443.460938 100.429688 443.609375 100.914062 443.8125 C 101.398438 444.011719 101.855469 444.257812 102.292969 444.546875 C 102.726562 444.839844 103.128906 445.167969 103.5 445.539062 C 103.871094 445.910156 104.199219 446.3125 104.492188 446.746094 C 104.78125 447.183594 105.027344 447.640625 105.226562 448.125 C 105.425781 448.609375 105.578125 449.105469 105.679688 449.621094 C 105.78125 450.132812 105.835938 450.652344 105.835938 451.175781 Z M 105.835938 451.175781 " fill-opacity="1" fill-rule="nonzero"/><path fill="#1e81ce" d="M 261.992188 237.808594 C 259.175781 233.589844 253.082031 232.183594 248.859375 234.996094 L 164.453125 291.269531 C 161.636719 293.144531 160.230469 295.957031 160.230469 299.238281 C 160.230469 302.523438 161.636719 305.335938 164.453125 307.210938 C 164.453125 307.210938 248.859375 363.484375 248.859375 363.484375 C 253.082031 366.296875 259.175781 365.359375 261.992188 360.671875 C 264.804688 356.449219 263.867188 350.355469 259.175781 347.539062 L 186.492188 299.238281 L 259.175781 250.9375 C 263.398438 248.125 264.804688 242.03125 261.992188 237.808594 Z M 261.992188 237.808594 " fill-opacity="1" fill-rule="nonzero"/><path fill="#1e81ce" d="M 349.214844 360.671875 C 352.027344 364.890625 358.121094 366.296875 362.34375 363.484375 L 446.753906 307.210938 C 449.566406 305.335938 450.972656 302.523438 450.972656 299.238281 C 450.972656 295.957031 449.566406 293.144531 446.753906 291.269531 L 362.34375 234.996094 C 358.121094 232.183594 352.027344 233.121094 349.214844 237.808594 C 346.398438 242.03125 347.335938 248.125 352.027344 250.9375 L 424.710938 299.238281 L 352.027344 347.539062 C 347.804688 350.355469 346.398438 356.449219 349.214844 360.671875 Z M 349.214844 360.671875 " fill-opacity="1" fill-rule="nonzero"/><path fill="#1e81ce" d="M 315.449219 226.554688 L 277.933594 367.234375 C 276.527344 372.394531 279.808594 377.550781 284.5 378.492188 C 285.4375 378.492188 285.90625 378.960938 286.84375 378.960938 C 291.066406 378.960938 294.816406 376.144531 295.753906 371.925781 L 333.269531 231.242188 C 334.675781 226.085938 331.394531 220.925781 326.703125 219.988281 C 322.015625 218.582031 316.855469 221.394531 315.449219 226.554688 Z M 315.449219 226.554688 " fill-opacity="1" fill-rule="nonzero"/><g clip-path="url(#7b0a23a973)"><path fill="#1e81ce" d="M 268.085938 519.640625 L 239.949219 519.640625 C 234.792969 519.640625 230.570312 523.859375 230.570312 529.019531 C 230.570312 534.179688 234.792969 538.398438 239.949219 538.398438 L 371.253906 538.398438 C 376.410156 538.398438 380.632812 534.179688 380.632812 529.019531 C 380.632812 523.859375 376.410156 519.640625 371.253906 519.640625 L 343.117188 519.640625 L 343.117188 491.503906 L 530.691406 491.503906 C 542.882812 491.503906 553.199219 483.53125 556.953125 472.746094 L 547.105469 472.746094 C 542.882812 472.746094 539.132812 472.277344 535.382812 470.871094 C 533.972656 471.808594 532.097656 472.746094 530.222656 472.746094 L 80.511719 472.746094 C 75.351562 472.746094 71.132812 468.527344 71.132812 463.367188 L 71.132812 435.230469 L 467.855469 435.230469 L 466.449219 433.824219 C 461.757812 429.136719 458.007812 423.039062 456.132812 416.472656 L 71.132812 416.472656 L 71.132812 191.382812 C 71.132812 186.226562 75.351562 182.003906 80.511719 182.003906 L 530.691406 182.003906 C 535.851562 182.003906 540.070312 186.226562 540.070312 191.382812 L 540.070312 239.214844 C 542.414062 238.746094 544.761719 238.277344 547.574219 238.277344 L 558.828125 238.277344 L 558.828125 191.382812 C 558.828125 175.910156 546.167969 163.246094 530.691406 163.246094 L 80.511719 163.246094 C 65.035156 163.246094 52.375 175.910156 52.375 191.382812 L 52.375 463.367188 C 52.375 478.84375 65.035156 491.503906 80.511719 491.503906 L 268.085938 491.503906 Z M 286.84375 491.503906 L 324.359375 491.503906 L 324.359375 519.640625 L 286.84375 519.640625 Z M 286.84375 491.503906 " fill-opacity="1" fill-rule="nonzero"/></g><g clip-path="url(#6244115980)"><path fill="#1e81ce" d="M 634.328125 325.96875 C 633.390625 323.625 632.453125 321.75 631.515625 319.402344 C 637.609375 310.496094 636.671875 298.300781 628.699219 290.332031 L 619.320312 280.953125 C 615.101562 276.730469 609.003906 274.386719 602.910156 274.386719 C 598.21875 274.386719 594 275.792969 590.246094 278.136719 C 588.371094 277.199219 586.027344 276.261719 583.683594 275.324219 C 581.335938 264.539062 571.957031 257.035156 561.171875 257.035156 L 548.042969 257.035156 C 536.789062 257.035156 527.410156 265.007812 525.535156 275.324219 C 523.1875 276.261719 521.3125 277.199219 518.96875 278.136719 C 515.21875 275.792969 510.996094 274.386719 506.308594 274.386719 C 500.210938 274.386719 494.113281 276.730469 489.894531 280.953125 L 480.515625 290.332031 C 472.542969 298.300781 471.605469 310.496094 477.703125 319.402344 C 476.765625 321.28125 475.828125 323.625 474.886719 325.96875 C 464.101562 328.3125 456.601562 337.691406 456.601562 348.476562 L 456.601562 361.609375 C 456.601562 372.863281 464.570312 382.242188 474.886719 384.117188 C 475.828125 386.460938 476.765625 388.339844 477.703125 390.683594 C 475.355469 394.433594 473.949219 398.65625 473.949219 403.34375 C 473.949219 409.441406 476.296875 415.535156 480.515625 419.757812 L 489.894531 429.136719 C 494.113281 433.355469 500.210938 435.699219 506.308594 435.699219 C 510.996094 435.699219 515.21875 434.292969 518.96875 431.949219 C 520.84375 432.886719 523.1875 433.824219 525.535156 434.761719 C 527.878906 445.546875 537.257812 453.050781 548.042969 453.050781 L 561.171875 453.050781 C 572.425781 453.050781 581.804688 445.078125 583.683594 434.761719 C 586.027344 433.824219 587.902344 432.886719 590.246094 431.949219 C 594 434.292969 598.21875 435.699219 602.910156 435.699219 C 609.003906 435.699219 615.101562 433.355469 619.320312 429.136719 L 628.699219 419.757812 C 632.921875 415.535156 635.265625 409.441406 635.265625 403.34375 C 635.265625 398.65625 633.859375 394.433594 631.515625 390.683594 C 632.453125 388.808594 633.390625 386.460938 634.328125 384.117188 C 645.113281 381.773438 652.617188 372.394531 652.617188 361.609375 L 652.617188 348.476562 C 652.617188 337.691406 644.644531 328.3125 634.328125 325.96875 Z M 633.859375 362.078125 C 633.859375 364.421875 631.984375 366.296875 629.636719 366.296875 L 619.789062 366.296875 C 617.914062 376.613281 614.164062 385.523438 608.535156 393.496094 L 615.570312 400.53125 C 617.445312 402.40625 617.445312 405.21875 615.570312 406.625 L 606.191406 416.003906 C 605.253906 416.945312 604.316406 417.414062 602.910156 417.414062 C 601.5 417.414062 600.5625 416.945312 599.625 416.003906 L 592.59375 408.972656 C 584.621094 414.597656 575.242188 418.820312 565.394531 420.226562 L 565.394531 430.074219 C 565.394531 432.417969 563.519531 434.292969 561.171875 434.292969 L 548.042969 434.292969 C 545.699219 434.292969 543.824219 432.417969 543.824219 430.074219 L 543.824219 421.164062 C 533.503906 419.289062 524.597656 415.535156 516.625 409.910156 L 508.652344 416.472656 C 507.714844 417.414062 506.777344 417.882812 505.371094 417.882812 C 503.960938 417.882812 503.492188 417.414062 502.554688 416.472656 L 493.175781 407.09375 C 491.300781 405.21875 491.300781 402.40625 493.175781 401 L 500.210938 393.964844 C 494.582031 385.992188 490.363281 376.613281 488.957031 366.765625 L 479.109375 366.765625 C 476.765625 366.765625 474.886719 364.890625 474.886719 362.546875 L 474.886719 349.417969 C 474.886719 347.070312 476.765625 345.195312 479.109375 345.195312 L 488.488281 345.195312 C 490.363281 334.878906 494.113281 325.96875 499.742188 317.996094 L 493.175781 310.027344 C 491.300781 308.148438 491.300781 305.335938 493.175781 303.929688 L 502.554688 294.550781 C 503.492188 293.613281 504.429688 293.144531 505.839844 293.144531 C 507.246094 293.144531 508.183594 293.613281 509.121094 294.550781 L 516.15625 301.585938 C 524.125 295.957031 533.503906 291.738281 543.351562 290.332031 L 543.351562 280.484375 C 543.351562 278.136719 545.230469 276.261719 547.574219 276.261719 L 560.703125 276.261719 C 563.046875 276.261719 564.925781 278.136719 564.925781 280.484375 L 564.925781 289.859375 C 575.242188 291.738281 584.152344 295.488281 592.121094 301.117188 L 599.15625 294.082031 C 600.09375 293.144531 601.03125 292.675781 602.441406 292.675781 C 603.847656 292.675781 604.785156 293.144531 605.722656 294.082031 L 615.101562 303.460938 C 616.976562 305.335938 616.976562 308.148438 615.101562 309.554688 L 608.066406 316.589844 C 613.695312 324.5625 617.914062 333.941406 619.320312 343.789062 L 629.167969 343.789062 C 631.515625 343.789062 633.390625 345.664062 633.390625 348.007812 L 633.390625 362.078125 Z M 633.859375 362.078125 " fill-opacity="1" fill-rule="nonzero"/></g><path fill="#1e81ce" d="M 554.140625 317.996094 C 533.503906 317.996094 516.625 334.878906 516.625 355.511719 C 516.625 376.144531 533.503906 393.027344 554.140625 393.027344 C 574.773438 393.027344 591.652344 376.144531 591.652344 355.511719 C 591.652344 334.878906 574.773438 317.996094 554.140625 317.996094 Z M 554.140625 374.269531 C 543.824219 374.269531 535.382812 365.828125 535.382812 355.511719 C 535.382812 345.195312 543.824219 336.753906 554.140625 336.753906 C 564.457031 336.753906 572.894531 345.195312 572.894531 355.511719 C 572.894531 365.828125 564.457031 374.269531 554.140625 374.269531 Z M 554.140625 374.269531 " fill-opacity="1" fill-rule="nonzero"/></svg>