<svg xmlns="http://www.w3.org/2000/svg" xmlns:xlink="http://www.w3.org/1999/xlink" width="940" zoomAndPan="magnify" viewBox="0 0 705 591.000005" height="788" preserveAspectRatio="xMidYMid meet" version="1.0"><defs><filter x="0%" y="0%" width="100%" height="100%" id="ff90bd9325"><feColorMatrix values="0 0 0 0 1 0 0 0 0 1 0 0 0 0 1 0 0 0 1 0" color-interpolation-filters="sRGB"/></filter><mask id="c5a8d572e7"><g filter="url(#ff90bd9325)"><rect x="-70.5" width="846" fill="#000000" y="-59.100001" height="709.200006" fill-opacity="0.11"/></g></mask><clipPath id="4b769a40c4"><path d="M 0.375 0.679688 L 181 0.679688 L 181 183.96875 L 0.375 183.96875 Z M 0.375 0.679688 " clip-rule="nonzero"/></clipPath><clipPath id="9a5e2d33f1"><rect x="0" width="182" y="0" height="184"/></clipPath><mask id="5f1d76b49f"><g filter="url(#ff90bd9325)"><rect x="-70.5" width="846" fill="#000000" y="-59.100001" height="709.200006" fill-opacity="0.11"/></g></mask><clipPath id="5460895a58"><path d="M 1 1 L 334 1 L 334 339.527344 L 1 339.527344 Z M 1 1 " clip-rule="nonzero"/></clipPath><clipPath id="5c3203ab0d"><rect x="0" width="335" y="0" height="340"/></clipPath><clipPath id="e650c19333"><path d="M 171.976562 264 L 491 264 L 491 558 L 171.976562 558 Z M 171.976562 264 " clip-rule="nonzero"/></clipPath></defs><g mask="url(#c5a8d572e7)"><g transform="matrix(1, 0, 0, 1, 155, 24)"><g clip-path="url(#9a5e2d33f1)"><g clip-path="url(#4b769a40c4)"><path fill="#464f5b" d="M 137.085938 19.925781 C 153.921875 32.4375 167.683594 49.039062 175.074219 68.375 C 182.46875 87.824219 183.605469 110.117188 173.597656 125.242188 C 163.703125 140.367188 142.886719 148.214844 125.488281 157.429688 C 108.085938 166.527344 94.097656 176.761719 76.808594 181.3125 C 59.636719 185.75 39.164062 184.382812 26.539062 173.691406 C 13.914062 163.117188 9.023438 143.097656 5.269531 124.445312 C 1.515625 105.90625 -1.210938 88.507812 3.109375 72.925781 C 7.429688 57.34375 18.804688 43.46875 32.792969 30.046875 C 46.78125 16.625 63.386719 3.546875 81.8125 1.273438 C 100.125 -1.003906 120.140625 7.414062 137.085938 19.925781 Z M 137.085938 19.925781 " fill-opacity="1" fill-rule="nonzero"/></g></g></g></g><g mask="url(#5f1d76b49f)"><g transform="matrix(1, 0, 0, 1, 212, 224)"><g clip-path="url(#5c3203ab0d)"><g clip-path="url(#5460895a58)"><path fill="#464f5b" d="M 252.871094 36.402344 C 283.996094 59.53125 309.4375 90.234375 323.105469 125.980469 C 336.773438 161.941406 338.878906 203.15625 320.375 231.125 C 302.078125 259.089844 263.597656 273.601562 231.421875 290.632812 C 199.25 307.457031 173.386719 326.378906 141.421875 334.792969 C 109.671875 342.992188 71.820312 340.46875 48.480469 320.703125 C 25.136719 301.148438 16.09375 264.136719 9.15625 229.652344 C 2.214844 195.375 -2.832031 163.203125 5.160156 134.394531 C 13.152344 105.585938 34.179688 79.929688 60.042969 55.117188 C 85.910156 30.304688 116.609375 6.121094 150.675781 1.914062 C 184.53125 -2.289062 221.539062 13.269531 252.871094 36.402344 Z M 252.871094 36.402344 " fill-opacity="1" fill-rule="nonzero"/></g></g></g></g><path fill="#9bc9ff" d="M 195.464844 362.570312 L 195.464844 335.964844 C 195.464844 333.710938 197.304688 331.871094 199.558594 331.871094 L 226.164062 331.871094 C 228.421875 331.871094 230.257812 333.710938 230.257812 335.964844 L 230.257812 362.570312 C 230.257812 364.820312 228.425781 366.703125 226.164062 366.703125 L 199.558594 366.703125 C 197.296875 366.703125 195.464844 364.820312 195.464844 362.570312 Z M 223.707031 345.195312 C 224.960938 343.671875 224.792969 341.445312 223.3125 340.171875 C 221.78125 338.914062 219.558594 339.132812 218.285156 340.617188 L 210.410156 350.046875 L 207.949219 347.722656 C 206.527344 346.378906 204.28125 346.441406 202.941406 347.871094 C 201.597656 349.300781 201.648438 351.539062 203.082031 352.886719 L 208.292969 357.765625 C 209.800781 359.183594 212.097656 359.007812 213.421875 357.429688 Z M 226.164062 394.148438 C 228.445312 394.148438 230.257812 396.011719 230.257812 398.285156 L 230.257812 424.886719 C 230.257812 427.144531 228.417969 428.980469 226.164062 428.980469 L 199.558594 428.980469 C 197.300781 428.980469 195.464844 427.144531 195.464844 424.886719 L 195.464844 398.285156 C 195.464844 396.011719 197.277344 394.148438 199.558594 394.148438 Z M 210.410156 412.320312 L 207.949219 410 C 206.53125 408.660156 204.273438 408.738281 202.933594 410.152344 C 201.585938 411.578125 201.652344 413.820312 203.082031 415.160156 L 208.292969 420.042969 C 209.753906 421.414062 212.128906 421.289062 213.421875 419.746094 L 223.714844 407.464844 C 224.953125 405.984375 224.804688 403.730469 223.308594 402.488281 C 221.792969 401.226562 219.558594 401.410156 218.285156 402.890625 Z M 226.164062 456.464844 C 228.421875 456.464844 230.257812 458.304688 230.257812 460.5625 L 230.257812 487.164062 C 230.257812 489.417969 228.417969 491.257812 226.164062 491.257812 L 199.558594 491.257812 C 197.300781 491.257812 195.464844 489.417969 195.464844 487.164062 L 195.464844 460.5625 C 195.464844 458.304688 197.304688 456.464844 199.558594 456.464844 Z M 210.40625 474.597656 L 207.964844 472.289062 C 206.519531 470.964844 204.28125 471.046875 202.933594 472.46875 C 201.613281 473.863281 201.648438 476.121094 203.082031 477.4375 L 208.292969 482.320312 C 209.789062 483.726562 212.097656 483.605469 213.421875 482.023438 L 223.714844 469.742188 C 224.953125 468.261719 224.804688 466.007812 223.308594 464.765625 C 221.785156 463.496094 219.558594 463.691406 218.28125 465.210938 Z M 214.136719 305.117188 L 214.136719 286.394531 L 233.527344 286.394531 C 235.476562 286.394531 237.082031 284.839844 237.082031 282.882812 L 237.082031 279.222656 C 237.082031 275.535156 240.105469 272.566406 243.777344 272.566406 C 247.460938 272.566406 250.4375 275.542969 250.4375 279.222656 L 250.4375 282.882812 C 250.4375 284.839844 252.042969 286.394531 253.988281 286.394531 L 273.378906 286.394531 L 273.378906 305.117188 Z M 386.746094 345.617188 C 385.910156 342.515625 385.496094 339.328125 385.523438 336.117188 C 385.535156 334.90625 384.941406 333.761719 383.917969 333.101562 L 377.429688 328.933594 L 379.34375 321.832031 L 387.035156 321.460938 C 388.269531 321.398438 389.316406 320.695312 389.921875 319.628906 C 391.507812 316.84375 393.476562 314.316406 395.753906 312.066406 C 396.621094 311.210938 397.011719 309.988281 396.742188 308.792969 L 395.164062 301.269531 L 401.5 297.613281 L 407.238281 302.75 C 408.132812 303.550781 409.390625 303.847656 410.550781 303.527344 C 413.433594 302.730469 417.058594 302.207031 420.039062 302.257812 C 421.253906 302.289062 422.378906 301.652344 423.039062 300.644531 L 427.253906 294.210938 L 434.300781 296.121094 L 434.71875 303.800781 C 434.78125 304.996094 435.464844 306.109375 436.503906 306.695312 C 439.304688 308.277344 441.890625 310.222656 444.121094 312.539062 C 444.949219 313.394531 446.210938 313.75 447.359375 313.515625 L 454.90625 311.894531 L 458.566406 318.230469 L 453.410156 323.992188 C 452.582031 324.878906 452.320312 326.140625 452.609375 327.273438 C 453.496094 330.359375 453.90625 333.578125 453.878906 336.792969 C 453.867188 338.011719 454.503906 339.140625 455.488281 339.808594 L 461.921875 343.972656 L 460.066406 351.078125 L 452.367188 351.449219 C 451.136719 351.507812 450.082031 352.210938 449.480469 353.277344 C 447.914062 356.050781 445.925781 358.621094 443.644531 360.847656 C 442.785156 361.6875 442.394531 362.9375 442.660156 364.117188 L 444.238281 371.636719 L 437.902344 375.296875 L 432.21875 370.171875 C 431.296875 369.367188 430.035156 369.054688 428.851562 369.382812 C 425.964844 370.183594 422.359375 370.703125 419.363281 370.648438 C 418.148438 370.621094 417.027344 371.210938 416.378906 372.246094 L 412.152344 378.703125 L 405.101562 376.789062 L 404.6875 369.109375 C 404.621094 367.914062 403.9375 366.800781 402.898438 366.214844 C 400.09375 364.632812 397.539062 362.683594 395.285156 360.378906 C 394.4375 359.507812 393.214844 359.160156 392.042969 359.394531 L 384.496094 361.015625 L 380.835938 354.679688 L 385.992188 348.917969 C 386.867188 347.960938 387.085938 346.851562 386.746094 345.617188 Z M 436.09375 340.839844 C 439.96875 326.363281 424.410156 314.203125 411.285156 321.726562 C 402.476562 326.777344 400.003906 338.367188 406.058594 346.558594 C 414.4375 357.886719 432.398438 354.636719 436.09375 340.839844 Z M 419.386719 452.519531 C 422.582031 452.492188 425.792969 452.90625 428.828125 453.78125 C 430.019531 454.085938 431.285156 453.804688 432.203125 452.972656 L 437.902344 447.832031 L 444.238281 451.492188 L 442.660156 459.054688 C 442.398438 460.269531 442.773438 461.425781 443.65625 462.292969 C 445.921875 464.558594 447.90625 467.101562 449.484375 469.894531 C 450.082031 470.953125 451.164062 471.617188 452.375 471.683594 L 460.066406 472.097656 L 461.925781 479.148438 L 455.492188 483.359375 C 454.472656 484.027344 453.871094 485.160156 453.878906 486.378906 C 453.90625 489.578125 453.492188 492.785156 452.617188 495.824219 C 452.3125 497.015625 452.597656 498.277344 453.425781 499.195312 L 458.570312 504.894531 L 454.910156 511.230469 L 447.347656 509.652344 C 446.164062 509.386719 444.957031 509.777344 444.117188 510.640625 C 441.875 512.933594 439.292969 514.875 436.511719 516.46875 C 435.457031 517.074219 434.78125 518.152344 434.714844 519.367188 L 434.300781 527.058594 L 427.25 528.917969 L 423.039062 522.484375 C 422.355469 521.441406 421.269531 520.859375 420.019531 520.871094 C 416.824219 520.90625 413.613281 520.480469 410.539062 519.601562 C 409.386719 519.273438 408.128906 519.574219 407.242188 520.375 L 401.5 525.558594 L 395.164062 521.898438 L 396.742188 514.339844 C 397.007812 513.121094 396.628906 511.964844 395.746094 511.097656 C 393.476562 508.828125 391.523438 506.289062 389.925781 503.507812 C 389.320312 502.449219 388.246094 501.777344 387.027344 501.710938 L 379.34375 501.292969 L 377.429688 494.242188 L 383.914062 490.03125 C 384.933594 489.367188 385.535156 488.230469 385.523438 487.011719 C 385.5 484.054688 385.917969 480.335938 386.761719 477.511719 C 387.113281 476.363281 386.8125 475.089844 385.992188 474.210938 L 380.835938 468.496094 L 384.492188 462.160156 L 392.054688 463.738281 C 393.277344 464.003906 394.425781 463.625 395.296875 462.742188 C 397.5625 460.476562 400.105469 458.492188 402.898438 456.917969 C 403.957031 456.320312 404.621094 455.238281 404.6875 454.023438 L 405.101562 446.34375 L 412.152344 444.429688 L 416.367188 450.910156 C 417.03125 451.929688 418.167969 452.53125 419.386719 452.519531 Z M 415.292969 470.304688 C 400.371094 474.296875 398.152344 494.800781 412.019531 501.84375 C 422.460938 507.148438 435.519531 500.492188 436.578125 488.109375 C 437.148438 481.457031 434 475.304688 428.191406 471.96875 C 424.269531 469.714844 419.660156 469.136719 415.292969 470.304688 Z M 415.292969 470.304688 " fill-opacity="1" fill-rule="evenodd"/><g clip-path="url(#e650c19333)"><path fill="#1e81ce" d="M 224.699219 346.011719 L 214.40625 358.257812 C 212.582031 360.429688 209.445312 360.582031 207.410156 358.703125 L 202.203125 353.824219 C 200.25 351.992188 200.167969 348.941406 202 346.988281 C 203.828125 345.039062 206.882812 344.957031 208.832031 346.785156 L 210.296875 348.167969 L 217.296875 339.789062 C 219.042969 337.757812 222.054688 337.472656 224.128906 339.179688 C 226.164062 340.929688 226.40625 343.9375 224.699219 346.011719 Z M 224.699219 470.566406 L 214.40625 482.851562 C 212.605469 485 209.441406 485.179688 207.410156 483.257812 L 202.203125 478.378906 C 200.25 476.589844 200.167969 473.496094 202 471.585938 C 203.828125 469.632812 206.882812 469.550781 208.832031 471.339844 L 210.296875 472.722656 L 217.296875 464.386719 C 219.042969 462.308594 222.054688 462.066406 224.128906 463.773438 C 226.164062 465.484375 226.40625 468.535156 224.699219 470.566406 Z M 224.699219 408.289062 L 214.40625 420.574219 C 212.632812 422.691406 209.40625 422.867188 207.410156 420.980469 L 202.203125 416.101562 C 200.25 414.269531 200.167969 411.21875 202 409.265625 C 203.828125 407.355469 206.882812 407.234375 208.832031 409.0625 L 210.296875 410.445312 L 217.296875 402.066406 C 219.042969 400.035156 222.054688 399.789062 224.128906 401.5 C 226.164062 403.207031 226.40625 406.257812 224.699219 408.289062 Z M 228.972656 487.164062 L 228.972656 460.5625 C 228.972656 459.015625 227.710938 457.753906 226.164062 457.753906 L 199.558594 457.753906 C 198.011719 457.753906 196.753906 459.015625 196.753906 460.5625 L 196.753906 487.164062 C 196.753906 488.710938 198.011719 489.96875 199.558594 489.96875 L 226.164062 489.96875 C 227.710938 489.96875 228.972656 488.710938 228.972656 487.164062 Z M 226.164062 448.074219 L 199.558594 448.074219 C 192.683594 448.074219 187.109375 453.6875 187.109375 460.5625 L 187.109375 487.164062 C 187.109375 494.039062 192.683594 499.652344 199.558594 499.652344 L 226.164062 499.652344 C 233.039062 499.652344 238.652344 494.039062 238.652344 487.164062 L 238.652344 460.5625 C 238.652344 453.6875 233.039062 448.074219 226.164062 448.074219 Z M 228.972656 424.886719 L 228.972656 398.285156 C 228.972656 396.699219 227.710938 395.4375 226.164062 395.4375 L 199.558594 395.4375 C 198.011719 395.4375 196.753906 396.699219 196.753906 398.285156 L 196.753906 424.886719 C 196.753906 426.433594 198.011719 427.695312 199.558594 427.695312 L 226.164062 427.695312 C 227.710938 427.695312 228.972656 426.433594 228.972656 424.886719 Z M 226.164062 385.796875 L 199.558594 385.796875 C 192.683594 385.796875 187.109375 391.410156 187.109375 398.285156 L 187.109375 424.886719 C 187.109375 431.761719 192.683594 437.332031 199.558594 437.332031 L 226.164062 437.332031 C 233.039062 437.332031 238.652344 431.761719 238.652344 424.886719 L 238.652344 398.285156 C 238.652344 391.410156 233.039062 385.796875 226.164062 385.796875 Z M 228.972656 362.570312 L 228.972656 335.964844 C 228.972656 334.421875 227.710938 333.160156 226.164062 333.160156 L 199.558594 333.160156 C 198.011719 333.160156 196.753906 334.421875 196.753906 335.964844 L 196.753906 362.570312 C 196.753906 364.113281 198.011719 365.417969 199.558594 365.417969 L 226.164062 365.417969 C 227.710938 365.417969 228.972656 364.113281 228.972656 362.570312 Z M 226.164062 323.519531 L 199.558594 323.519531 C 192.683594 323.519531 187.109375 329.09375 187.109375 335.964844 L 187.109375 362.570312 C 187.109375 369.441406 192.683594 375.058594 199.558594 375.058594 L 226.164062 375.058594 C 233.039062 375.058594 238.652344 369.445312 238.652344 362.570312 L 238.652344 335.964844 C 238.652344 329.09375 233.039062 323.519531 226.164062 323.519531 Z M 292.3125 349.269531 C 292.3125 351.953125 290.15625 354.109375 287.46875 354.109375 L 253.257812 354.109375 C 250.574219 354.109375 248.417969 351.953125 248.417969 349.269531 C 248.417969 346.625 250.574219 344.46875 253.257812 344.46875 L 287.46875 344.46875 C 290.15625 344.46875 292.3125 346.625 292.3125 349.269531 Z M 292.3125 411.585938 C 292.3125 414.230469 290.15625 416.386719 287.46875 416.386719 L 253.257812 416.386719 C 250.574219 416.386719 248.417969 414.230469 248.417969 411.585938 C 248.417969 408.902344 250.574219 406.746094 253.257812 406.746094 L 287.46875 406.746094 C 290.15625 406.746094 292.3125 408.902344 292.3125 411.585938 Z M 292.3125 473.863281 C 292.3125 476.546875 290.15625 478.703125 287.46875 478.703125 L 253.257812 478.703125 C 250.574219 478.703125 248.417969 476.546875 248.417969 473.863281 C 248.417969 471.21875 250.574219 469.023438 253.257812 469.023438 L 287.46875 469.023438 C 290.15625 469.023438 292.3125 471.21875 292.3125 473.863281 Z M 479.726562 323.96875 C 479.15625 321.363281 480.863281 318.800781 483.46875 318.273438 C 486.070312 317.742188 488.636719 319.410156 489.164062 322.015625 C 498.402344 366.886719 463.84375 407.4375 419.679688 407.4375 C 406.867188 407.4375 394.132812 403.9375 382.949219 397.144531 C 381.503906 401.59375 374.976562 401.613281 373.710938 396.902344 C 373.296875 395.34375 370.867188 387.039062 370.867188 386 L 371.109375 384.292969 L 372.085938 382.582031 C 373.203125 381.453125 374.230469 381.015625 375.746094 380.957031 L 385.957031 381.160156 C 390.28125 381.234375 392.410156 386.535156 389.089844 389.578125 C 407.761719 400.359375 431.070312 400.644531 450.355469 389.496094 C 473.296875 376.277344 485.097656 349.917969 479.726562 323.96875 Z M 350.238281 350.894531 C 350.726562 353.171875 352.722656 354.71875 354.957031 354.71875 C 358.113281 354.71875 360.304688 351.882812 359.679688 348.941406 C 354.308594 322.992188 366.105469 296.632812 389.046875 283.371094 C 408.332031 272.265625 431.601562 272.550781 450.3125 283.332031 C 447.078125 286.160156 448.972656 291.671875 453.445312 291.75 L 463.617188 291.953125 C 464.351562 291.960938 465.203125 291.789062 465.851562 291.464844 L 467.316406 290.328125 C 467.359375 290.285156 467.398438 290.246094 467.441406 290.164062 C 467.597656 290.164062 468.847656 288.253906 468.496094 286.460938 L 465.691406 276.007812 C 464.425781 271.351562 457.921875 271.25 456.457031 275.761719 C 434.609375 262.5 406.988281 261.890625 384.246094 275.03125 C 357.644531 290.367188 343.972656 320.875 350.238281 350.894531 Z M 428.019531 338.691406 C 429.242188 334.09375 426.515625 329.375 421.917969 328.15625 C 417.257812 326.890625 412.585938 329.679688 411.382812 334.21875 C 410.160156 338.8125 412.886719 343.53125 417.484375 344.753906 C 422.121094 346.011719 426.761719 343.230469 428.019531 338.691406 Z M 424.441406 318.800781 C 414.71875 316.199219 404.671875 322.015625 402.066406 331.734375 C 398.976562 343.277344 407.628906 354.71875 419.722656 354.71875 C 427.960938 354.71875 435.183594 349.222656 437.335938 341.171875 C 439.941406 331.449219 434.164062 321.40625 424.441406 318.800781 Z M 459.058594 349.835938 L 460.441406 344.550781 L 454.789062 340.886719 C 453.40625 339.953125 452.59375 338.40625 452.59375 336.78125 C 452.632812 333.6875 452.226562 330.597656 451.371094 327.628906 C 450.964844 326.042969 451.332031 324.332031 452.46875 323.113281 L 456.984375 318.066406 L 454.257812 313.347656 L 447.628906 314.773438 C 446.042969 315.097656 444.332031 314.609375 443.195312 313.429688 C 441.039062 311.195312 438.558594 309.324219 435.871094 307.816406 C 434.449219 307.003906 433.511719 305.5 433.429688 303.871094 L 433.0625 297.121094 L 427.816406 295.695312 L 424.113281 301.347656 C 423.21875 302.730469 421.671875 303.585938 420.007812 303.546875 C 416.957031 303.546875 413.863281 303.953125 410.894531 304.765625 C 409.308594 305.214844 407.597656 304.808594 406.378906 303.710938 L 401.332031 299.195312 L 396.613281 301.917969 L 397.996094 308.507812 C 398.363281 310.136719 397.835938 311.804688 396.65625 312.984375 C 394.457031 315.140625 392.585938 317.578125 391.042969 320.265625 C 390.226562 321.730469 388.761719 322.664062 387.097656 322.746094 L 380.34375 323.070312 L 378.917969 328.359375 L 384.613281 332.019531 C 385.996094 332.914062 386.8125 334.460938 386.8125 336.128906 C 386.769531 339.21875 387.175781 342.269531 387.992188 345.28125 C 388.480469 346.867188 388.074219 348.578125 386.933594 349.796875 L 382.417969 354.839844 L 385.144531 359.558594 L 391.773438 358.136719 C 393.402344 357.8125 395.070312 358.296875 396.207031 359.476562 C 398.40625 361.714844 400.847656 363.585938 403.53125 365.089844 C 404.957031 365.90625 405.890625 367.410156 405.972656 369.039062 L 406.339844 375.789062 L 411.585938 377.214844 L 415.289062 371.558594 C 416.183594 370.136719 417.730469 369.320312 419.398438 369.363281 C 422.488281 369.363281 425.539062 368.957031 428.507812 368.140625 C 430.09375 367.695312 431.804688 368.101562 433.066406 369.199219 L 438.070312 373.714844 L 442.789062 370.988281 L 441.40625 364.398438 C 441.039062 362.773438 441.566406 361.066406 442.746094 359.925781 C 444.945312 357.769531 446.855469 355.289062 448.359375 352.644531 C 449.175781 351.179688 450.640625 350.246094 452.304688 350.164062 Z M 461.335938 327.667969 L 466.503906 321.933594 C 467.886719 320.386719 468.132812 318.109375 467.074219 316.277344 L 460.847656 305.5 C 459.832031 303.667969 457.71875 302.734375 455.683594 303.179688 L 448.117188 304.808594 C 446.488281 303.34375 444.738281 302 442.949219 300.78125 L 442.542969 293.089844 C 442.421875 291.015625 440.957031 289.226562 438.964844 288.699219 L 426.921875 285.445312 C 424.886719 284.914062 422.730469 285.730469 421.632812 287.476562 L 417.402344 293.945312 C 415.246094 294.066406 413.050781 294.351562 410.933594 294.800781 L 405.199219 289.675781 C 403.609375 288.25 401.332031 288.007812 399.542969 289.066406 L 388.722656 295.289062 C 386.933594 296.347656 385.996094 298.421875 386.445312 300.496094 L 388.03125 308.023438 C 386.566406 309.648438 385.222656 311.398438 384.042969 313.226562 L 376.355469 313.636719 C 374.238281 313.757812 372.492188 315.179688 371.921875 317.214844 L 368.707031 329.253906 C 368.179688 331.25 368.992188 333.40625 370.742188 334.542969 L 377.210938 338.734375 C 377.332031 340.929688 377.617188 343.085938 378.0625 345.242188 L 372.898438 350.976562 C 371.515625 352.523438 371.269531 354.800781 372.328125 356.632812 L 378.550781 367.410156 C 379.609375 369.242188 381.683594 370.136719 383.71875 369.730469 L 391.285156 368.101562 C 392.914062 369.566406 394.621094 370.910156 396.453125 372.089844 L 396.859375 379.816406 C 396.980469 381.890625 398.445312 383.683594 400.4375 384.210938 L 412.480469 387.464844 C 414.542969 387.949219 416.625 387.226562 417.808594 385.433594 L 422 378.921875 C 424.15625 378.84375 426.351562 378.558594 428.46875 378.070312 L 434.203125 383.234375 C 435.789062 384.660156 438.070312 384.902344 439.859375 383.84375 L 450.679688 377.621094 C 452.46875 376.5625 453.40625 374.488281 452.957031 372.414062 L 451.371094 364.890625 C 452.835938 363.261719 454.179688 361.511719 455.359375 359.683594 L 463.046875 359.277344 C 465.160156 359.152344 466.910156 357.730469 467.480469 355.695312 L 470.695312 343.65625 C 471.222656 341.660156 470.410156 339.507812 468.660156 338.367188 L 462.191406 334.175781 C 462.070312 331.980469 461.785156 329.824219 461.335938 327.667969 Z M 468.496094 536.75 L 465.691406 547.121094 C 464.4375 551.789062 457.925781 551.898438 456.457031 547.367188 C 434.445312 560.8125 406.683594 561.09375 384.25 548.136719 C 357.644531 532.761719 343.972656 502.296875 350.238281 472.234375 C 350.769531 469.632812 353.332031 467.964844 355.933594 468.492188 C 358.539062 469.0625 360.246094 471.625 359.679688 474.226562 C 354.308594 500.179688 366.105469 526.5 389.046875 539.757812 C 408.332031 550.863281 431.601562 550.578125 450.3125 539.800781 C 447.046875 536.941406 449.039062 531.449219 453.445312 531.378906 L 464.347656 531.257812 C 465.941406 531.433594 466.757812 532.316406 466.828125 532.316406 L 467.5625 533.128906 C 468.605469 534.167969 468.496094 535.65625 468.496094 536.75 Z M 489.164062 501.117188 C 495.429688 471.097656 481.761719 440.628906 455.15625 425.253906 C 432.414062 412.113281 404.792969 412.765625 382.945312 426.027344 C 381.484375 421.519531 374.964844 421.605469 373.710938 426.230469 L 371.027344 436.113281 C 370.648438 437.539062 371.011719 439.476562 371.882812 440.34375 C 371.882812 440.4375 372.917969 441.449219 373.507812 441.644531 L 375.054688 442.132812 L 385.957031 442.011719 C 390.359375 441.910156 392.355469 436.453125 389.089844 433.59375 C 407.761719 422.773438 431.070312 422.527344 450.351562 433.632812 C 473.296875 446.894531 485.09375 473.210938 479.722656 499.164062 C 479.15625 501.765625 480.863281 504.328125 483.464844 504.898438 C 486.117188 505.351562 488.59375 503.769531 489.164062 501.117188 Z M 454.789062 482.28125 L 460.441406 478.582031 L 459.058594 473.332031 L 452.304688 472.96875 C 450.636719 472.886719 449.175781 471.949219 448.359375 470.527344 C 446.855469 467.84375 444.945312 465.402344 442.746094 463.203125 C 441.566406 462.066406 441.039062 460.398438 441.40625 458.773438 L 442.789062 452.140625 L 438.070312 449.414062 L 433.066406 453.929688 C 431.804688 455.070312 430.09375 455.4375 428.507812 455.027344 C 425.539062 454.175781 422.449219 453.769531 419.398438 453.808594 C 417.730469 453.808594 416.183594 452.996094 415.289062 451.613281 L 411.585938 445.917969 L 406.339844 447.339844 L 405.972656 454.09375 C 405.890625 455.761719 404.957031 457.226562 403.53125 458.039062 C 400.847656 459.542969 398.40625 461.457031 396.210938 463.652344 C 395.070312 464.832031 393.402344 465.359375 391.773438 464.996094 L 385.144531 463.613281 L 382.417969 468.332031 L 386.933594 473.335938 C 388.074219 474.554688 388.480469 476.304688 387.992188 477.890625 C 387.179688 480.859375 386.769531 483.910156 386.8125 487 C 386.8125 488.667969 385.996094 490.214844 384.613281 491.109375 L 378.917969 494.8125 L 380.34375 500.058594 L 387.097656 500.425781 C 388.761719 500.507812 390.226562 501.441406 391.042969 502.867188 C 392.585938 505.550781 394.457031 507.992188 396.65625 510.1875 C 397.835938 511.328125 398.363281 512.996094 397.996094 514.621094 L 396.613281 521.253906 L 401.332031 523.976562 L 406.378906 519.421875 C 407.597656 518.324219 409.308594 517.917969 410.894531 518.363281 C 413.863281 519.21875 416.957031 519.625 420.007812 519.585938 C 421.683594 519.574219 423.1875 520.359375 424.113281 521.78125 L 427.816406 527.433594 L 433.0625 526.050781 L 433.429688 519.300781 C 433.511719 517.632812 434.449219 516.167969 435.871094 515.351562 C 438.558594 513.808594 441.039062 511.9375 443.195312 509.738281 C 444.332031 508.558594 446 508.03125 447.628906 508.398438 L 454.257812 509.78125 L 456.984375 505.0625 L 452.46875 500.058594 C 451.332031 498.796875 450.964844 497.089844 451.371094 495.503906 C 452.226562 492.53125 452.632812 489.441406 452.59375 486.390625 C 452.59375 484.722656 453.40625 483.175781 454.789062 482.28125 Z M 467.480469 467.433594 C 466.910156 465.402344 465.164062 463.976562 463.046875 463.855469 L 455.359375 463.449219 C 454.179688 461.617188 452.835938 459.910156 451.371094 458.28125 L 452.957031 450.714844 C 453.40625 448.683594 452.46875 446.566406 450.679688 445.550781 L 439.859375 439.285156 C 438.070312 438.269531 435.792969 438.511719 434.203125 439.894531 L 428.46875 445.0625 C 426.355469 444.613281 424.15625 444.328125 422 444.207031 L 417.808594 437.738281 C 416.671875 435.988281 414.515625 435.136719 412.480469 435.703125 L 400.4375 438.917969 C 398.445312 439.488281 396.980469 441.238281 396.859375 443.351562 L 396.453125 451.039062 C 394.621094 452.21875 392.914062 453.5625 391.285156 455.027344 L 383.71875 453.441406 C 381.6875 452.992188 379.609375 453.929688 378.554688 455.71875 L 372.328125 466.539062 C 371.269531 468.328125 371.515625 470.605469 372.898438 472.191406 L 378.066406 477.925781 C 377.617188 480.042969 377.332031 482.199219 377.210938 484.394531 L 370.742188 488.585938 C 368.992188 489.722656 368.179688 491.878906 368.707031 493.914062 L 371.921875 505.953125 C 372.492188 507.949219 374.242188 509.414062 376.355469 509.535156 L 384.042969 509.902344 C 385.222656 511.730469 386.566406 513.480469 388.03125 515.109375 L 386.445312 522.671875 C 385.996094 524.707031 386.933594 526.824219 388.722656 527.839844 L 399.542969 534.105469 C 401.332031 535.121094 403.613281 534.878906 405.199219 533.496094 L 410.933594 528.328125 C 413.050781 528.777344 415.246094 529.0625 417.402344 529.183594 L 421.632812 535.648438 C 422.78125 537.414062 424.980469 538.234375 426.921875 537.683594 L 438.964844 534.46875 C 440.957031 533.902344 442.421875 532.152344 442.542969 530.035156 L 442.949219 522.347656 C 444.742188 521.167969 446.488281 519.828125 448.117188 518.363281 L 455.683594 519.949219 C 457.71875 520.398438 459.832031 519.460938 460.851562 517.671875 L 467.074219 506.851562 C 468.132812 505.0625 467.886719 502.785156 466.503906 501.195312 L 461.339844 495.460938 C 461.785156 493.347656 462.070312 491.148438 462.191406 488.992188 L 468.660156 484.761719 C 470.410156 483.625 471.222656 481.507812 470.695312 479.476562 Z M 421.917969 495.015625 C 429.25 493.066406 430.675781 483.125 423.992188 479.230469 C 417.550781 475.480469 409.382812 481.414062 411.382812 488.914062 C 412.601562 493.507812 417.320312 496.234375 421.917969 495.015625 Z M 428.835938 470.851562 C 424.605469 468.453125 419.683594 467.800781 414.960938 469.0625 C 405.238281 471.664062 399.464844 481.671875 402.066406 491.433594 C 404.679688 501.257812 414.828125 506.972656 424.441406 504.328125 C 440.300781 499.96875 442.6875 478.84375 428.835938 470.851562 Z M 305.898438 512.628906 L 305.898438 310.503906 C 305.898438 307.53125 303.457031 305.09375 300.488281 305.09375 L 281.734375 305.09375 C 281.734375 309.921875 278.183594 313.472656 273.679688 313.472656 L 213.835938 313.472656 C 209.332031 313.472656 205.78125 309.921875 205.78125 305.09375 L 187.027344 305.09375 C 184.058594 305.09375 181.617188 307.535156 181.617188 310.503906 L 181.617188 512.628906 C 181.617188 515.636719 184.058594 518.039062 187.027344 518.039062 L 300.488281 518.039062 C 303.457031 518.039062 305.898438 515.636719 305.898438 512.628906 Z M 215.425781 287.683594 L 233.527344 287.683594 C 236.210938 287.683594 238.367188 285.527344 238.367188 282.882812 L 238.367188 279.222656 C 238.367188 276.25 240.808594 273.851562 243.777344 273.851562 C 246.75 273.851562 249.148438 276.253906 249.148438 279.222656 L 249.148438 282.882812 C 249.148438 285.527344 251.304688 287.683594 253.988281 287.683594 L 272.09375 287.683594 L 272.09375 303.832031 L 215.425781 303.832031 Z M 357.074219 450.511719 C 357.074219 447.828125 354.917969 445.671875 352.234375 445.671875 L 338.359375 445.671875 L 338.359375 377.496094 L 352.234375 377.496094 C 354.917969 377.496094 357.074219 375.300781 357.074219 372.65625 C 357.074219 369.972656 354.917969 367.816406 352.234375 367.816406 L 333.558594 367.816406 C 330.875 367.816406 328.71875 369.972656 328.71875 372.65625 L 328.71875 407.03125 L 315.539062 407.03125 L 315.539062 310.503906 C 315.539062 302.203125 308.785156 295.453125 300.488281 295.453125 L 281.734375 295.453125 L 281.734375 286.097656 C 281.734375 281.664062 278.113281 278.042969 273.679688 278.042969 L 258.75 278.042969 C 258.140625 270.3125 251.671875 264.171875 243.777344 264.171875 C 235.847656 264.171875 229.378906 270.3125 228.769531 278.042969 L 213.835938 278.042969 C 209.402344 278.042969 205.78125 281.664062 205.78125 286.097656 L 205.78125 295.453125 L 187.027344 295.453125 C 178.730469 295.453125 171.976562 302.203125 171.976562 310.503906 L 171.976562 512.628906 C 171.976562 520.964844 178.730469 527.71875 187.027344 527.71875 L 300.488281 527.71875 C 308.785156 527.71875 315.539062 520.964844 315.539062 512.628906 L 315.539062 416.710938 L 328.71875 416.710938 L 328.71875 450.511719 C 328.71875 453.15625 330.875 455.3125 333.558594 455.3125 L 352.234375 455.3125 C 354.917969 455.3125 357.074219 453.15625 357.074219 450.511719 Z M 357.074219 450.511719 " fill-opacity="1" fill-rule="evenodd"/></g></svg>